<svg width="417" height="279" viewBox="0 0 417 279" fill="none" xmlns="http://www.w3.org/2000/svg">
<path d="M336.21 145.02C336.11 147.18 335.99 149.33 335.8 151.46H343.09C343.26 149.33 343.4 147.17 343.48 145.02H336.21Z" fill="url(#paint0_linear_25_35)"/>
<path d="M80.25 145.02H72.98C73.05 147.18 73.2 149.33 73.37 151.46H80.66C80.47 149.33 80.35 147.17 80.25 145.02Z" fill="url(#paint1_linear_25_35)"/>
<path d="M305.26 125.87L255.41 215.25C285.42 198.31 305.24 166.1 305.35 130.19C305.34 128.75 305.31 127.31 305.26 125.87Z" fill="url(#paint2_linear_25_35)"/>
<path d="M109.53 129.61C109.42 166.05 129.51 198.67 160.06 215.59L109.7 124.04C109.6 125.89 109.54 127.75 109.53 129.61Z" fill="url(#paint3_linear_25_35)"/>
<path d="M150.49 110.61L120.07 85.72C134.94 56.19 163.33 36.42 196 32.66L195.89 71.08L195.66 147.57L150.49 110.61ZM220.2 32.83L220.09 71.43L219.87 147.64L295.29 86.67C280.77 57.06 252.72 37.02 220.2 32.83ZM219.8 178.8C218.59 179.78 217.45 180.84 216.37 181.96C216.32 182.01 216.27 182.06 216.22 182.12C214.02 184.3 210.99 185.65 207.65 185.64C204.18 185.63 201.06 184.16 198.86 181.82C198.03 180.94 197.18 180.08 196.25 179.32L144.4 136.89C165.46 175.7 186.52 214.5 207.58 253.31C228.79 214.63 249.99 175.95 271.2 137.27L219.8 178.8Z" fill="url(#paint4_linear_25_35)"/>
<path d="M362.19 133.13C355.09 133.13 349.21 138.26 348 145.02H327.37C327.44 143.18 327.49 141.34 327.49 139.47C327.49 133.92 327.13 128.47 326.45 123.12C326.16 120.96 325.82 118.81 325.43 116.68C315.02 59.4301 266.09 15.9301 207.43 15.9301C148.79 15.9301 99.8499 59.4301 89.4299 116.68C89.0399 118.81 88.6999 120.97 88.4099 123.12C87.7299 128.47 87.3699 133.92 87.3699 139.47C87.3699 141.33 87.42 143.18 87.49 145.02H68.5299C67.3399 138.26 61.43 133.13 54.36 133.13C46.39 133.13 39.9299 139.6 39.9299 147.54C39.9299 155.51 46.4 161.97 54.36 161.97C60.95 161.97 66.4899 157.51 68.2099 151.46H87.95C88.65 159.04 90.01 166.4 91.99 173.5C92.6 175.68 93.25 177.81 93.9799 179.94C110.3 228.26 154.99 263.04 207.42 263.04C259.88 263.04 304.56 228.26 320.86 179.94C321.59 177.81 322.24 175.68 322.85 173.5C324.84 166.4 326.22 159.04 326.89 151.46H348.3C350.02 157.51 355.59 161.97 362.18 161.97C370.12 161.97 376.59 155.5 376.59 147.54C376.6 139.59 370.14 133.13 362.19 133.13ZM54.36 157.13C49.08 157.13 44.77 152.84 44.77 147.54C44.77 142.26 49.08 137.97 54.36 137.97C59.64 137.97 63.9299 142.26 63.9299 147.54C63.9299 152.84 59.64 157.13 54.36 157.13ZM315.28 173.5C314.65 175.68 313.95 177.81 313.17 179.94C297.21 224.16 255.84 255.77 207.43 255.77C159.02 255.77 117.65 224.16 101.69 179.94C100.92 177.81 100.21 175.68 99.58 173.5C97.45 166.4 96 159.04 95.24 151.46C95.02 149.33 94.8499 147.17 94.7599 145.02C94.6899 143.18 94.64 141.34 94.64 139.47C94.64 133.92 95.0299 128.45 95.7499 123.12C96.0399 120.94 96.3999 118.81 96.8199 116.68C107.11 63.4501 152.79 23.1901 207.43 23.1901C262.07 23.1901 307.75 63.4401 318.04 116.68C318.45 118.81 318.82 120.94 319.11 123.12C319.84 128.45 320.22 133.92 320.22 139.47C320.22 141.33 320.17 143.18 320.1 145.02C320 147.18 319.83 149.33 319.62 151.46C318.87 159.04 317.41 166.4 315.28 173.5ZM362.19 157.13C356.91 157.13 352.6 152.84 352.6 147.54C352.6 142.26 356.91 137.97 362.19 137.97C367.47 137.97 371.76 142.26 371.76 147.54C371.76 152.84 367.47 157.13 362.19 157.13Z" fill="url(#paint5_linear_25_35)"/>
<path d="M402.11 160.93C394.8 160.93 388.77 166.43 387.84 173.5H339.47H331.96C331.4 175.68 330.77 177.84 330.12 179.94C313.46 232.93 265.11 271.37 208.22 271.37C151.35 271.37 102.99 232.93 86.32 179.94C85.67 177.83 85.04 175.68 84.48 173.5H76.97H28.7C27.78 166.43 21.72 160.93 14.41 160.93C6.47 160.93 0 167.42 0 175.36C0 183.3 6.47 189.77 14.41 189.77C20.76 189.77 26.16 185.65 28.07 179.94H78.74C95.67 237 147.31 278.63 208.22 278.63C269.13 278.63 320.77 237 337.7 179.94H388.44C390.38 185.66 395.75 189.77 402.1 189.77C410.07 189.77 416.53 183.3 416.53 175.36C416.54 167.42 410.08 160.93 402.11 160.93ZM14.43 184.93C9.15001 184.93 4.86 180.64 4.86 175.36C4.86 170.08 9.15001 165.77 14.43 165.77C19.71 165.77 24 170.08 24 175.36C23.99 180.65 19.71 184.93 14.43 184.93ZM402.11 184.93C396.83 184.93 392.54 180.64 392.54 175.36C392.54 170.08 396.83 165.77 402.11 165.77C407.41 165.77 411.7 170.08 411.7 175.36C411.7 180.65 407.41 184.93 402.11 184.93Z" fill="url(#paint6_linear_25_35)"/>
<path d="M28.96 134.34C35.79 134.34 41.53 129.54 43.01 123.13H73.79H81.1C81.34 120.95 81.66 118.82 82.0201 116.69C92.4601 54.62 145.09 7.27 208.23 7.27C271.39 7.27 324 54.62 334.44 116.69C334.8 118.82 335.12 120.95 335.36 123.13H342.67H373.55C375 129.55 380.74 134.34 387.57 134.34C395.54 134.34 402 127.87 402 119.91C402 111.97 395.53 105.5 387.57 105.5C380.74 105.5 375 110.3 373.55 116.69H341.8C331.29 50.59 275.39 0 208.23 0C141.07 0 85.17 50.59 74.66 116.69H43C41.52 110.3 35.78 105.5 28.95 105.5C21.01 105.5 14.54 111.97 14.54 119.91C14.55 127.87 21.01 134.34 28.96 134.34ZM387.58 110.34C392.88 110.34 397.17 114.63 397.17 119.91C397.17 125.19 392.88 129.5 387.58 129.5C382.3 129.5 378.01 125.19 378.01 119.91C378.01 114.62 382.3 110.34 387.58 110.34ZM28.96 110.34C34.24 110.34 38.53 114.63 38.53 119.91C38.53 125.19 34.24 129.5 28.96 129.5C23.68 129.5 19.39 125.19 19.39 119.91C19.39 114.62 23.68 110.34 28.96 110.34Z" fill="url(#paint7_linear_25_35)"/>
<defs>
<linearGradient id="paint0_linear_25_35" x1="335.795" y1="148.24" x2="343.472" y2="148.24" gradientUnits="userSpaceOnUse">
<stop stop-color="#00FFA3"/>
<stop offset="1" stop-color="#DC1FFF"/>
</linearGradient>
<linearGradient id="paint1_linear_25_35" x1="72.9885" y1="148.24" x2="80.6661" y2="148.24" gradientUnits="userSpaceOnUse">
<stop stop-color="#00FFA3"/>
<stop offset="1" stop-color="#DC1FFF"/>
</linearGradient>
<linearGradient id="paint2_linear_25_35" x1="292.769" y1="183.071" x2="270.386" y2="160.554" gradientUnits="userSpaceOnUse">
<stop stop-color="#C5F9F7"/>
<stop offset="0.3877" stop-color="#00C4DE"/>
<stop offset="1" stop-color="#333296"/>
</linearGradient>
<linearGradient id="paint3_linear_25_35" x1="168.926" y1="206.799" x2="98.1223" y2="135.574" gradientUnits="userSpaceOnUse">
<stop stop-color="#C5F9F7"/>
<stop offset="0.3877" stop-color="#00C4DE"/>
<stop offset="1" stop-color="#333296"/>
</linearGradient>
<linearGradient id="paint4_linear_25_35" x1="120.067" y1="142.977" x2="295.282" y2="142.977" gradientUnits="userSpaceOnUse">
<stop stop-color="#00FFA3"/>
<stop offset="1" stop-color="#DC1FFF"/>
</linearGradient>
<linearGradient id="paint5_linear_25_35" x1="39.9287" y1="139.485" x2="376.604" y2="139.485" gradientUnits="userSpaceOnUse">
<stop stop-color="#00FFA3"/>
<stop offset="1" stop-color="#DC1FFF"/>
</linearGradient>
<linearGradient id="paint6_linear_25_35" x1="0.0151" y1="219.784" x2="416.542" y2="219.784" gradientUnits="userSpaceOnUse">
<stop stop-color="#00FFA3"/>
<stop offset="1" stop-color="#DC1FFF"/>
</linearGradient>
<linearGradient id="paint7_linear_25_35" x1="14.5468" y1="67.1652" x2="402.011" y2="67.1652" gradientUnits="userSpaceOnUse">
<stop stop-color="#00FFA3"/>
<stop offset="1" stop-color="#DC1FFF"/>
</linearGradient>
</defs>
</svg>
