<svg width="635" height="77" viewBox="0 0 635 77" fill="none" xmlns="http://www.w3.org/2000/svg">
<path d="M416.789 18.3526C426.127 18.3526 435.414 18.3526 444.779 18.3526C444.779 12.2524 444.779 6.1652 444.779 0C435.466 0 426.166 0 416.789 0C416.789 6.15219 416.789 12.2134 416.789 18.3526Z" fill="white"/>
<path d="M457.551 3.98006C453.753 2.69239 450.463 2.23718 448.291 2.05508C448.291 6.78954 448.291 11.524 448.291 16.4535C450.437 16.2454 453.675 15.7772 457.447 14.5155C461.102 13.2929 466.331 11.55 466.344 9.27382C466.357 6.95861 460.92 5.12465 457.551 3.98006Z" fill="white"/>
<path d="M414.057 18.3785C414.707 18.3785 415.305 18.3785 415.943 18.3785C415.943 12.2394 415.943 6.15219 415.943 0C415.318 0 414.694 0 414.057 0C414.057 6.11317 414.057 12.1873 414.057 18.3785Z" fill="white"/>
<path d="M447.211 1.58682C446.691 1.20962 446.158 0.949488 445.56 0.611313C445.56 6.34729 445.56 11.9532 445.56 17.7672C446.132 17.4291 446.678 17.1559 447.224 16.7527C447.341 16.6617 447.472 16.1544 447.472 15.8423C447.485 11.3939 447.485 6.95864 447.472 2.51033C447.459 2.18516 447.329 1.66486 447.211 1.58682Z" fill="white"/>
<path d="M87.4834 17.9753H52.7294V76.987H34.7541V17.9753H0V0H87.4704V17.9753H87.4834Z" fill="white"/>
<path d="M176.164 17.9753H111.91V29.5123H171.976V47.4877H111.91V59.0247H176.021V77H93.9351V0.0130157H176.164V17.9753Z" fill="white"/>
<path d="M278.163 76.987H260.188V52.5733H212.856V34.598H260.188V23.8154C260.188 19.9263 258.887 17.9753 256.298 17.9753H205.377C202.88 17.9753 201.631 19.9134 201.631 23.8024V76.987H183.656V23.7634C183.656 17.286 185.672 11.7061 189.717 7.02364C193.762 2.34121 198.978 0 205.364 0H256.286C262.776 0 268.044 2.34121 272.089 7.02364C276.134 11.7061 278.15 17.286 278.15 23.7634V76.987H278.163Z" fill="white"/>
<path d="M385.702 76.987H367.727V30.1106L335.678 75.7904L303.63 30.1106V76.987H285.654V0H304.527L335.678 44.4831L366.986 0H385.702V76.987Z" fill="white"/>
<path d="M461.206 31.5674C456.29 27.002 450.372 24.6999 443.374 24.6999H411.182C411.13 16.4666 411.078 8.23328 411.026 0H393.194V42.6882H443.374C448.16 42.6882 450.554 44.7692 450.554 48.9314V52.6514C450.554 56.9046 448.16 59.0116 443.374 59.0116H418.362C413.575 59.0116 411.182 56.9306 411.182 52.7424H393.194C393.194 59.675 395.652 65.463 400.53 70.0674C405.407 74.6978 411.364 77 418.362 77H443.374C450.372 77 456.29 74.6718 461.206 70.0414C466.084 65.411 468.542 59.61 468.542 52.6514V48.9054C468.542 41.9338 466.084 36.1718 461.206 31.5674Z" fill="white"/>
<path d="M551.369 52.6383C551.369 59.61 548.924 65.411 544.034 70.0414C539.143 74.6718 533.199 76.987 526.214 76.987H501.202C494.205 76.987 488.274 74.6848 483.383 70.0674C478.493 65.45 476.047 59.675 476.047 52.7294H494.023C494.023 56.9176 496.416 59.0247 501.215 59.0247H526.227C531.027 59.0247 533.42 56.9045 533.42 52.6383V48.9314C533.42 44.7692 531.027 42.7012 526.227 42.7012H476.047V0.0130157H547.051V17.9884H494.023V24.7258H526.227C533.212 24.7258 539.156 27.015 544.047 31.5934C548.937 36.1718 551.382 41.9468 551.382 48.9184V52.6383H551.369Z" fill="white"/>
<path d="M634.197 52.6383C634.197 59.61 631.751 65.411 626.861 70.0414C621.97 74.6718 616.026 76.987 609.042 76.987H584.03C577.032 76.987 571.101 74.6718 566.21 70.0414C561.32 65.411 558.875 59.597 558.875 52.6254V24.5177C558.875 17.5461 561.32 11.7061 566.21 7.02364C571.101 2.34121 577.045 0 584.03 0H626.718V17.9753H584.03C579.243 17.9753 576.837 20.1735 576.837 24.5698V25.6233C579.139 25.025 581.532 24.7259 584.03 24.7259H609.042C616.026 24.7259 621.97 27.015 626.861 31.5934C631.751 36.1718 634.197 41.9468 634.197 48.9184V52.6383ZM616.221 52.6383V48.9314C616.221 44.7692 613.828 42.7012 609.029 42.7012H584.017C579.23 42.7012 576.824 44.7823 576.824 48.9314V52.6383C576.824 56.8915 579.217 59.0247 584.017 59.0247H609.029C613.828 59.0117 616.221 56.8915 616.221 52.6383Z" fill="white"/>
</svg>
