<svg width="1115" height="279" viewBox="0 0 1115 279" fill="none" xmlns="http://www.w3.org/2000/svg">
<path d="M336.21 145.02C336.11 147.18 335.99 149.33 335.8 151.46H343.09C343.26 149.33 343.4 147.17 343.48 145.02H336.21Z" fill="url(#paint0_linear_712_241)"/>
<path d="M80.25 145.02H72.98C73.05 147.18 73.2 149.33 73.37 151.46H80.66C80.47 149.33 80.35 147.17 80.25 145.02Z" fill="url(#paint1_linear_712_241)"/>
<path d="M305.26 125.87L255.41 215.25C285.42 198.31 305.24 166.1 305.35 130.19C305.34 128.75 305.31 127.31 305.26 125.87Z" fill="url(#paint2_linear_712_241)"/>
<path d="M109.53 129.61C109.42 166.05 129.51 198.67 160.06 215.59L109.7 124.04C109.6 125.89 109.54 127.75 109.53 129.61Z" fill="url(#paint3_linear_712_241)"/>
<path d="M150.49 110.61L120.07 85.72C134.94 56.19 163.33 36.42 196 32.66L195.89 71.08L195.66 147.57L150.49 110.61ZM220.2 32.83L220.09 71.43L219.87 147.64L295.29 86.67C280.77 57.06 252.72 37.02 220.2 32.83ZM219.8 178.8C218.59 179.78 217.45 180.84 216.37 181.96C216.32 182.01 216.27 182.06 216.22 182.12C214.02 184.3 210.99 185.65 207.65 185.64C204.18 185.63 201.06 184.16 198.86 181.82C198.03 180.94 197.18 180.08 196.25 179.32L144.4 136.89C165.46 175.7 186.52 214.5 207.58 253.31C228.79 214.63 249.99 175.95 271.2 137.27L219.8 178.8Z" fill="url(#paint4_linear_712_241)"/>
<path d="M362.19 133.13C355.09 133.13 349.21 138.26 348 145.02H327.37C327.44 143.18 327.49 141.34 327.49 139.47C327.49 133.92 327.13 128.47 326.45 123.12C326.16 120.96 325.82 118.81 325.43 116.68C315.02 59.43 266.09 15.93 207.43 15.93C148.79 15.93 99.8502 59.43 89.4302 116.68C89.0402 118.81 88.7002 120.97 88.4102 123.12C87.7302 128.47 87.3702 133.92 87.3702 139.47C87.3702 141.33 87.4202 143.18 87.4902 145.02H68.5302C67.3402 138.26 61.4302 133.13 54.3602 133.13C46.3902 133.13 39.9302 139.6 39.9302 147.54C39.9302 155.51 46.4002 161.97 54.3602 161.97C60.9502 161.97 66.4902 157.51 68.2102 151.46H87.9502C88.6502 159.04 90.0102 166.4 91.9902 173.5C92.6002 175.68 93.2502 177.81 93.9802 179.94C110.3 228.26 154.99 263.04 207.42 263.04C259.88 263.04 304.56 228.26 320.86 179.94C321.59 177.81 322.24 175.68 322.85 173.5C324.84 166.4 326.22 159.04 326.89 151.46H348.3C350.02 157.51 355.59 161.97 362.18 161.97C370.12 161.97 376.59 155.5 376.59 147.54C376.6 139.59 370.14 133.13 362.19 133.13ZM54.3602 157.13C49.0802 157.13 44.7702 152.84 44.7702 147.54C44.7702 142.26 49.0802 137.97 54.3602 137.97C59.6402 137.97 63.9302 142.26 63.9302 147.54C63.9302 152.84 59.6402 157.13 54.3602 157.13ZM315.28 173.5C314.65 175.68 313.95 177.81 313.17 179.94C297.21 224.16 255.84 255.77 207.43 255.77C159.02 255.77 117.65 224.16 101.69 179.94C100.92 177.81 100.21 175.68 99.5802 173.5C97.4502 166.4 96.0002 159.04 95.2402 151.46C95.0202 149.33 94.8502 147.17 94.7602 145.02C94.6902 143.18 94.6402 141.34 94.6402 139.47C94.6402 133.92 95.0302 128.45 95.7502 123.12C96.0402 120.94 96.4002 118.81 96.8202 116.68C107.11 63.45 152.79 23.19 207.43 23.19C262.07 23.19 307.75 63.44 318.04 116.68C318.45 118.81 318.82 120.94 319.11 123.12C319.84 128.45 320.22 133.92 320.22 139.47C320.22 141.33 320.17 143.18 320.1 145.02C320 147.18 319.83 149.33 319.62 151.46C318.87 159.04 317.41 166.4 315.28 173.5ZM362.19 157.13C356.91 157.13 352.6 152.84 352.6 147.54C352.6 142.26 356.91 137.97 362.19 137.97C367.47 137.97 371.76 142.26 371.76 147.54C371.76 152.84 367.47 157.13 362.19 157.13Z" fill="url(#paint5_linear_712_241)"/>
<path d="M402.11 160.93C394.8 160.93 388.77 166.43 387.84 173.5H339.47H331.96C331.4 175.68 330.77 177.84 330.12 179.94C313.46 232.93 265.11 271.37 208.22 271.37C151.35 271.37 102.99 232.93 86.32 179.94C85.67 177.83 85.04 175.68 84.48 173.5H76.97H28.7C27.78 166.43 21.72 160.93 14.41 160.93C6.47 160.93 0 167.42 0 175.36C0 183.3 6.47 189.77 14.41 189.77C20.76 189.77 26.16 185.65 28.07 179.94H78.74C95.67 237 147.31 278.63 208.22 278.63C269.13 278.63 320.77 237 337.7 179.94H388.44C390.38 185.66 395.75 189.77 402.1 189.77C410.07 189.77 416.53 183.3 416.53 175.36C416.54 167.42 410.08 160.93 402.11 160.93ZM14.43 184.93C9.15001 184.93 4.86 180.64 4.86 175.36C4.86 170.08 9.15001 165.77 14.43 165.77C19.71 165.77 24 170.08 24 175.36C23.99 180.65 19.71 184.93 14.43 184.93ZM402.11 184.93C396.83 184.93 392.54 180.64 392.54 175.36C392.54 170.08 396.83 165.77 402.11 165.77C407.41 165.77 411.7 170.08 411.7 175.36C411.7 180.65 407.41 184.93 402.11 184.93Z" fill="url(#paint6_linear_712_241)"/>
<path d="M28.96 134.34C35.79 134.34 41.53 129.54 43.01 123.13H73.79H81.1C81.34 120.95 81.6601 118.82 82.0201 116.69C92.46 54.62 145.09 7.27 208.23 7.27C271.39 7.27 324 54.62 334.44 116.69C334.8 118.82 335.12 120.95 335.36 123.13H342.67H373.55C375 129.55 380.74 134.34 387.57 134.34C395.54 134.34 402 127.87 402 119.91C402 111.97 395.53 105.5 387.57 105.5C380.74 105.5 375 110.3 373.55 116.69H341.8C331.29 50.59 275.39 0 208.23 0C141.07 0 85.17 50.59 74.66 116.69H43C41.52 110.3 35.78 105.5 28.95 105.5C21.01 105.5 14.54 111.97 14.54 119.91C14.55 127.87 21.01 134.34 28.96 134.34ZM387.58 110.34C392.88 110.34 397.17 114.63 397.17 119.91C397.17 125.19 392.88 129.5 387.58 129.5C382.3 129.5 378.01 125.19 378.01 119.91C378.01 114.62 382.3 110.34 387.58 110.34ZM28.96 110.34C34.24 110.34 38.53 114.63 38.53 119.91C38.53 125.19 34.24 129.5 28.96 129.5C23.68 129.5 19.39 125.19 19.39 119.91C19.39 114.62 23.68 110.34 28.96 110.34Z" fill="url(#paint7_linear_712_241)"/>
<path d="M896.789 125.353C906.127 125.353 915.414 125.353 924.779 125.353C924.779 119.252 924.779 113.165 924.779 107C915.466 107 906.166 107 896.789 107C896.789 113.152 896.789 119.213 896.789 125.353Z" fill="white"/>
<path d="M937.551 110.98C933.753 109.692 930.463 109.237 928.291 109.055C928.291 113.79 928.291 118.524 928.291 123.454C930.437 123.245 933.675 122.777 937.447 121.516C941.102 120.293 946.331 118.55 946.344 116.274C946.357 113.959 940.92 112.125 937.551 110.98Z" fill="white"/>
<path d="M894.057 125.379C894.707 125.379 895.305 125.379 895.943 125.379C895.943 119.239 895.943 113.152 895.943 107C895.318 107 894.694 107 894.057 107C894.057 113.113 894.057 119.187 894.057 125.379Z" fill="white"/>
<path d="M927.211 108.587C926.691 108.21 926.158 107.949 925.56 107.611C925.56 113.347 925.56 118.953 925.56 124.767C926.132 124.429 926.678 124.156 927.224 123.753C927.341 123.662 927.472 123.154 927.472 122.842C927.485 118.394 927.485 113.959 927.472 109.51C927.459 109.185 927.329 108.665 927.211 108.587Z" fill="white"/>
<path d="M567.483 124.975H532.729V183.987H514.754V124.975H480V107H567.47V124.975H567.483Z" fill="white"/>
<path d="M656.164 124.975H591.91V136.512H651.976V154.488H591.91V166.025H656.021V184H573.935V107.013H656.164V124.975Z" fill="white"/>
<path d="M758.163 183.987H740.188V159.573H692.856V141.598H740.188V130.815C740.188 126.926 738.887 124.975 736.298 124.975H685.377C682.88 124.975 681.631 126.913 681.631 130.802V183.987H663.656V130.763C663.656 124.286 665.672 118.706 669.717 114.024C673.762 109.341 678.978 107 685.364 107H736.286C742.776 107 748.044 109.341 752.089 114.024C756.134 118.706 758.15 124.286 758.15 130.763V183.987H758.163Z" fill="white"/>
<path d="M865.702 183.987H847.727V137.111L815.678 182.79L783.63 137.111V183.987H765.654V107H784.527L815.678 151.483L846.986 107H865.702V183.987Z" fill="white"/>
<path d="M941.206 138.567C936.29 134.002 930.372 131.7 923.374 131.7H891.182C891.13 123.467 891.078 115.233 891.026 107H873.194V149.688H923.374C928.16 149.688 930.554 151.769 930.554 155.931V159.651C930.554 163.905 928.16 166.012 923.374 166.012H898.362C893.575 166.012 891.182 163.931 891.182 159.742H873.194C873.194 166.675 875.652 172.463 880.53 177.067C885.407 181.698 891.364 184 898.362 184H923.374C930.372 184 936.29 181.672 941.206 177.041C946.084 172.411 948.542 166.61 948.542 159.651V155.905C948.542 148.934 946.084 143.172 941.206 138.567Z" fill="white"/>
<path d="M1031.37 159.638C1031.37 166.61 1028.92 172.411 1024.03 177.041C1019.14 181.672 1013.2 183.987 1006.21 183.987H981.202C974.205 183.987 968.274 181.685 963.383 177.067C958.493 172.45 956.047 166.675 956.047 159.729H974.023C974.023 163.918 976.416 166.025 981.215 166.025H1006.23C1011.03 166.025 1013.42 163.905 1013.42 159.638V155.931C1013.42 151.769 1011.03 149.701 1006.23 149.701H956.047V107.013H1027.05V124.988H974.023V131.726H1006.23C1013.21 131.726 1019.16 134.015 1024.05 138.593C1028.94 143.172 1031.38 148.947 1031.38 155.918V159.638H1031.37Z" fill="white"/>
<path d="M1114.2 159.638C1114.2 166.61 1111.75 172.411 1106.86 177.041C1101.97 181.672 1096.03 183.987 1089.04 183.987H1064.03C1057.03 183.987 1051.1 181.672 1046.21 177.041C1041.32 172.411 1038.87 166.597 1038.87 159.625V131.518C1038.87 124.546 1041.32 118.706 1046.21 114.024C1051.1 109.341 1057.04 107 1064.03 107H1106.72V124.975H1064.03C1059.24 124.975 1056.84 127.173 1056.84 131.57V132.623C1059.14 132.025 1061.53 131.726 1064.03 131.726H1089.04C1096.03 131.726 1101.97 134.015 1106.86 138.593C1111.75 143.172 1114.2 148.947 1114.2 155.918V159.638ZM1096.22 159.638V155.931C1096.22 151.769 1093.83 149.701 1089.03 149.701H1064.02C1059.23 149.701 1056.82 151.782 1056.82 155.931V159.638C1056.82 163.892 1059.22 166.025 1064.02 166.025H1089.03C1093.83 166.012 1096.22 163.892 1096.22 159.638Z" fill="white"/>
<defs>
<linearGradient id="paint0_linear_712_241" x1="335.794" y1="148.24" x2="343.472" y2="148.24" gradientUnits="userSpaceOnUse">
<stop stop-color="#00FFA3"/>
<stop offset="1" stop-color="#DC1FFF"/>
</linearGradient>
<linearGradient id="paint1_linear_712_241" x1="72.9885" y1="148.24" x2="80.6661" y2="148.24" gradientUnits="userSpaceOnUse">
<stop stop-color="#00FFA3"/>
<stop offset="1" stop-color="#DC1FFF"/>
</linearGradient>
<linearGradient id="paint2_linear_712_241" x1="292.769" y1="183.071" x2="270.386" y2="160.554" gradientUnits="userSpaceOnUse">
<stop stop-color="#C5F9F7"/>
<stop offset="0.3877" stop-color="#00C4DE"/>
<stop offset="1" stop-color="#333296"/>
</linearGradient>
<linearGradient id="paint3_linear_712_241" x1="168.926" y1="206.799" x2="98.122" y2="135.574" gradientUnits="userSpaceOnUse">
<stop stop-color="#C5F9F7"/>
<stop offset="0.3877" stop-color="#00C4DE"/>
<stop offset="1" stop-color="#333296"/>
</linearGradient>
<linearGradient id="paint4_linear_712_241" x1="120.067" y1="142.977" x2="295.282" y2="142.977" gradientUnits="userSpaceOnUse">
<stop stop-color="#00FFA3"/>
<stop offset="1" stop-color="#DC1FFF"/>
</linearGradient>
<linearGradient id="paint5_linear_712_241" x1="39.929" y1="139.485" x2="376.605" y2="139.485" gradientUnits="userSpaceOnUse">
<stop stop-color="#00FFA3"/>
<stop offset="1" stop-color="#DC1FFF"/>
</linearGradient>
<linearGradient id="paint6_linear_712_241" x1="0.0151" y1="219.784" x2="416.542" y2="219.784" gradientUnits="userSpaceOnUse">
<stop stop-color="#00FFA3"/>
<stop offset="1" stop-color="#DC1FFF"/>
</linearGradient>
<linearGradient id="paint7_linear_712_241" x1="14.5468" y1="67.1652" x2="402.011" y2="67.1652" gradientUnits="userSpaceOnUse">
<stop stop-color="#00FFA3"/>
<stop offset="1" stop-color="#DC1FFF"/>
</linearGradient>
</defs>
</svg>
