<svg width="1124" height="225" viewBox="0 0 1124 225" fill="none" xmlns="http://www.w3.org/2000/svg">
<g clip-path="url(#clip0_956_273)">
<rect x="-2" y="21" width="184" height="184" rx="30" fill="#212020"/>
<path d="M133.704 115.229C133.67 115.962 133.629 116.692 133.565 117.415H136.04C136.097 116.692 136.145 115.959 136.172 115.229H133.704Z" fill="url(#paint0_linear_956_273)"/>
<path d="M46.8144 115.229H44.3464C44.3702 115.962 44.4211 116.692 44.4788 117.415H46.9535C46.889 116.692 46.8483 115.959 46.8144 115.229Z" fill="url(#paint1_linear_956_273)"/>
<path d="M123.198 108.729L106.275 139.07C116.463 133.319 123.191 122.385 123.228 110.195C123.225 109.706 123.215 109.217 123.198 108.729Z" fill="url(#paint2_linear_956_273)"/>
<path d="M56.7536 109.998C56.7162 122.368 63.5361 133.442 73.9068 139.186L56.8113 108.107C56.7773 108.735 56.757 109.367 56.7536 109.998Z" fill="url(#paint3_linear_956_273)"/>
<path d="M70.6586 103.548L60.332 95.099C65.3799 85.0746 75.0173 78.3633 86.1077 77.0869L86.0704 90.1292L85.9923 116.095L70.6586 103.548ZM94.3228 77.1446L94.2854 90.248L94.2108 116.119L119.813 95.4215C114.884 85.3699 105.362 78.567 94.3228 77.1446ZM94.187 126.697C93.7762 127.029 93.3892 127.389 93.0226 127.769C93.0057 127.786 92.9887 127.803 92.9717 127.824C92.2249 128.564 91.1963 129.022 90.0625 129.018C88.8845 129.015 87.8254 128.516 87.0786 127.722C86.7968 127.423 86.5083 127.131 86.1926 126.873L68.5912 112.469C75.7404 125.644 82.8896 138.815 90.0387 151.99C97.2388 138.86 104.435 125.729 111.636 112.598L94.187 126.697Z" fill="url(#paint4_linear_956_273)"/>
<path d="M142.523 111.193C140.113 111.193 138.117 112.934 137.706 115.229H130.703C130.727 114.605 130.744 113.98 130.744 113.345C130.744 111.461 130.622 109.611 130.391 107.795C130.292 107.062 130.177 106.332 130.045 105.609C126.511 86.1743 109.901 71.4075 89.9875 71.4075C70.0812 71.4075 53.4678 86.1743 49.9305 105.609C49.7981 106.332 49.6827 107.065 49.5843 107.795C49.3534 109.611 49.2312 111.461 49.2312 113.345C49.2312 113.977 49.2482 114.605 49.272 115.229H42.8357C42.4317 112.934 40.4255 111.193 38.0255 111.193C35.3199 111.193 33.127 113.389 33.127 116.085C33.127 118.79 35.3233 120.983 38.0255 120.983C40.2625 120.983 42.1432 119.469 42.7271 117.415H49.4281C49.6658 119.988 50.1274 122.487 50.7996 124.897C51.0066 125.637 51.2273 126.36 51.4751 127.083C57.0152 143.486 72.1859 155.293 89.9842 155.293C107.793 155.293 122.96 143.486 128.493 127.083C128.741 126.36 128.962 125.637 129.169 124.897C129.844 122.487 130.313 119.988 130.54 117.415H137.808C138.392 119.469 140.283 120.983 142.52 120.983C145.215 120.983 147.412 118.787 147.412 116.085C147.415 113.386 145.222 111.193 142.523 111.193ZM38.0255 119.34C36.2331 119.34 34.77 117.884 34.77 116.085C34.77 114.292 36.2331 112.836 38.0255 112.836C39.8178 112.836 41.2741 114.292 41.2741 116.085C41.2741 117.884 39.8178 119.34 38.0255 119.34ZM126.599 124.897C126.385 125.637 126.147 126.36 125.883 127.083C120.465 142.095 106.421 152.825 89.9875 152.825C73.554 152.825 59.5103 142.095 54.0924 127.083C53.831 126.36 53.59 125.637 53.3761 124.897C52.6531 122.487 52.1608 119.988 51.9028 117.415C51.8282 116.692 51.7704 115.959 51.7399 115.229C51.7161 114.605 51.6992 113.98 51.6992 113.345C51.6992 111.461 51.8315 109.604 52.076 107.795C52.1744 107.055 52.2966 106.332 52.4392 105.609C55.9323 87.5389 71.4391 73.872 89.9875 73.872C108.536 73.872 124.043 87.5355 127.536 105.609C127.675 106.332 127.801 107.055 127.899 107.795C128.147 109.604 128.276 111.461 128.276 113.345C128.276 113.977 128.259 114.605 128.235 115.229C128.201 115.962 128.144 116.692 128.072 117.415C127.818 119.988 127.322 122.487 126.599 124.897ZM142.523 119.34C140.731 119.34 139.268 117.884 139.268 116.085C139.268 114.292 140.731 112.836 142.523 112.836C144.316 112.836 145.772 114.292 145.772 116.085C145.772 117.884 144.316 119.34 142.523 119.34Z" fill="url(#paint5_linear_956_273)"/>
<path d="M156.075 120.63C153.593 120.63 151.546 122.497 151.231 124.897H134.811H132.261C132.071 125.638 131.857 126.371 131.637 127.084C125.981 145.072 109.568 158.121 90.2557 158.121C70.9502 158.121 54.5337 145.072 48.8748 127.084C48.6541 126.367 48.4402 125.638 48.2501 124.897H45.7007H29.3147C29.0024 122.497 26.9452 120.63 24.4637 120.63C21.7684 120.63 19.572 122.834 19.572 125.529C19.572 128.224 21.7684 130.421 24.4637 130.421C26.6193 130.421 28.4525 129.022 29.1008 127.084H46.3016C52.0488 146.454 69.5788 160.586 90.2557 160.586C110.933 160.586 128.463 146.454 134.21 127.084H151.434C152.093 129.025 153.916 130.421 156.071 130.421C158.777 130.421 160.97 128.224 160.97 125.529C160.973 122.834 158.78 120.63 156.075 120.63ZM24.4705 128.778C22.6781 128.778 21.2218 127.321 21.2218 125.529C21.2218 123.736 22.6781 122.273 24.4705 122.273C26.2629 122.273 27.7192 123.736 27.7192 125.529C27.7158 127.325 26.2629 128.778 24.4705 128.778ZM156.075 128.778C154.282 128.778 152.826 127.321 152.826 125.529C152.826 123.736 154.282 122.273 156.075 122.273C157.874 122.273 159.33 123.736 159.33 125.529C159.33 127.325 157.874 128.778 156.075 128.778Z" fill="url(#paint6_linear_956_273)"/>
<path d="M29.4032 111.604C31.7217 111.604 33.6703 109.974 34.1727 107.798H44.6214H47.1029C47.1844 107.058 47.293 106.335 47.4152 105.612C50.9593 84.5416 68.8254 68.4679 90.2593 68.4679C111.7 68.4679 129.559 84.5416 133.103 105.612C133.226 106.335 133.334 107.058 133.416 107.798H135.897H146.38C146.872 109.978 148.821 111.604 151.139 111.604C153.845 111.604 156.038 109.408 156.038 106.705C156.038 104.01 153.841 101.814 151.139 101.814C148.821 101.814 146.872 103.443 146.38 105.612H135.602C132.034 83.1736 113.058 66 90.2593 66C67.4607 66 48.4846 83.1736 44.9168 105.612H34.1693C33.6669 103.443 31.7183 101.814 29.3998 101.814C26.7044 101.814 24.5081 104.01 24.5081 106.705C24.5115 109.408 26.7044 111.604 29.4032 111.604ZM151.143 103.457C152.942 103.457 154.398 104.913 154.398 106.705C154.398 108.498 152.942 109.961 151.143 109.961C149.35 109.961 147.894 108.498 147.894 106.705C147.894 104.91 149.35 103.457 151.143 103.457ZM29.4032 103.457C31.1955 103.457 32.6518 104.913 32.6518 106.705C32.6518 108.498 31.1955 109.961 29.4032 109.961C27.6108 109.961 26.1545 108.498 26.1545 106.705C26.1545 104.91 27.6108 103.457 29.4032 103.457Z" fill="url(#paint7_linear_956_273)"/>
<path d="M816 85.9796C829.219 85.9796 842.366 85.9796 855.623 85.9796C855.623 77.3443 855.623 68.7274 855.623 60C842.439 60 829.275 60 816 60C816 68.709 816 77.289 816 85.9796Z" fill="white"/>
<path d="M873.703 65.6344C868.327 63.8116 863.669 63.1672 860.594 62.9094C860.594 69.6115 860.594 76.3134 860.594 83.2916C863.632 82.997 868.216 82.3342 873.556 80.5482C878.73 78.8175 886.131 76.3503 886.15 73.1281C886.168 69.8508 878.472 67.2547 873.703 65.6344Z" fill="white"/>
<path d="M812.133 86.0164C813.053 86.0164 813.9 86.0164 814.803 86.0164C814.803 77.3259 814.803 68.709 814.803 60C813.919 60 813.035 60 812.133 60C812.133 68.6537 812.133 77.2522 812.133 86.0164Z" fill="white"/>
<path d="M859.065 62.2461C858.329 61.7122 857.574 61.344 856.727 60.8652C856.727 68.985 856.727 76.9206 856.727 85.1509C857.537 84.6722 858.31 84.2855 859.084 83.7147C859.249 83.5858 859.434 82.8678 859.434 82.4259C859.452 76.129 859.452 69.8504 859.434 63.5534C859.415 63.0931 859.231 62.3566 859.065 62.2461Z" fill="white"/>
<path d="M349.84 85.4456H300.643V168.982H275.197V85.4456H226V60H349.822V85.4456H349.84Z" fill="white"/>
<path d="M475.374 85.4455H384.418V101.777H469.446V127.223H384.418V143.554H475.172V169H358.973V60.0183H475.374V85.4455Z" fill="white"/>
<path d="M619.762 168.982H594.317V134.422H527.315V108.976H594.317V93.7127C594.317 88.2074 592.475 85.4456 588.811 85.4456H516.728C513.193 85.4456 511.425 88.1891 511.425 93.6943V168.982H485.979V93.6391C485.979 84.4698 488.833 76.5709 494.56 69.9426C500.286 63.3142 507.669 60 516.709 60H588.793C597.981 60 605.438 63.3142 611.164 69.9426C616.89 76.5709 619.744 84.4698 619.744 93.6391V168.982H619.762Z" fill="white"/>
<path d="M771.995 168.982H746.549V102.624L701.181 167.288L655.814 102.624V168.982H630.368V60H657.084L701.181 122.97L745.499 60H771.995V168.982Z" fill="white"/>
<path d="M878.877 104.686C871.917 98.2237 863.539 94.9647 853.634 94.9647H808.064C807.99 83.3098 807.916 71.6549 807.843 60H782.6V120.429H853.634C860.409 120.429 863.797 123.375 863.797 129.267V134.532C863.797 140.553 860.409 143.536 853.634 143.536H818.227C811.451 143.536 808.064 140.59 808.064 134.661H782.6C782.6 144.475 786.08 152.668 792.984 159.186C799.889 165.741 808.321 169 818.227 169H853.634C863.539 169 871.917 165.704 878.877 159.149C885.781 152.595 889.261 144.383 889.261 134.532V129.23C889.261 119.361 885.781 111.204 878.877 104.686Z" fill="white"/>
<path d="M1006.51 134.514C1006.51 144.383 1003.05 152.595 996.125 159.149C989.202 165.704 980.788 168.981 970.901 168.981H935.494C925.588 168.981 917.192 165.722 910.269 159.186C903.347 152.65 899.885 144.475 899.885 134.643H925.331C925.331 140.572 928.718 143.554 935.512 143.554H970.919C977.713 143.554 981.101 140.553 981.101 134.514V129.266C981.101 123.375 977.713 120.447 970.919 120.447H899.885V60.0183H1000.4V85.4639H925.331V95.0014H970.919C980.806 95.0014 989.221 98.2419 996.144 104.723C1003.07 111.204 1006.53 119.379 1006.53 129.248V134.514H1006.51Z" fill="white"/>
<path d="M1123.76 134.514C1123.76 144.383 1120.3 152.595 1113.37 159.149C1106.45 165.704 1098.04 168.982 1088.15 168.982H1052.74C1042.84 168.982 1034.44 165.704 1027.52 159.149C1020.6 152.595 1017.13 144.365 1017.13 134.496V94.7069C1017.13 84.838 1020.6 76.5709 1027.52 69.9426C1034.44 63.3142 1042.86 60 1052.74 60H1113.17V85.4456H1052.74C1045.97 85.4456 1042.56 88.5573 1042.56 94.7806V96.272C1045.82 95.425 1049.21 95.0015 1052.74 95.0015H1088.15C1098.04 95.0015 1106.45 98.2421 1113.37 104.723C1120.3 111.204 1123.76 119.379 1123.76 129.248V134.514ZM1098.31 134.514V129.267C1098.31 123.375 1094.92 120.447 1088.13 120.447H1052.72C1045.95 120.447 1042.54 123.393 1042.54 129.267V134.514C1042.54 140.535 1045.93 143.554 1052.72 143.554H1088.13C1094.92 143.536 1098.31 140.535 1098.31 134.514Z" fill="white"/>
</g>
<defs>
<linearGradient id="paint0_linear_956_273" x1="133.563" y1="116.322" x2="136.169" y2="116.322" gradientUnits="userSpaceOnUse">
<stop stop-color="#00FFA3"/>
<stop offset="1" stop-color="#DC1FFF"/>
</linearGradient>
<linearGradient id="paint1_linear_956_273" x1="44.3493" y1="116.322" x2="46.9556" y2="116.322" gradientUnits="userSpaceOnUse">
<stop stop-color="#00FFA3"/>
<stop offset="1" stop-color="#DC1FFF"/>
</linearGradient>
<linearGradient id="paint2_linear_956_273" x1="118.957" y1="128.146" x2="111.359" y2="120.503" gradientUnits="userSpaceOnUse">
<stop stop-color="#C5F9F7"/>
<stop offset="0.3877" stop-color="#00C4DE"/>
<stop offset="1" stop-color="#333296"/>
</linearGradient>
<linearGradient id="paint3_linear_956_273" x1="76.9165" y1="136.201" x2="52.881" y2="112.023" gradientUnits="userSpaceOnUse">
<stop stop-color="#C5F9F7"/>
<stop offset="0.3877" stop-color="#00C4DE"/>
<stop offset="1" stop-color="#333296"/>
</linearGradient>
<linearGradient id="paint4_linear_956_273" x1="60.3311" y1="114.536" x2="119.811" y2="114.536" gradientUnits="userSpaceOnUse">
<stop stop-color="#00FFA3"/>
<stop offset="1" stop-color="#DC1FFF"/>
</linearGradient>
<linearGradient id="paint5_linear_956_273" x1="33.1265" y1="113.35" x2="147.417" y2="113.35" gradientUnits="userSpaceOnUse">
<stop stop-color="#00FFA3"/>
<stop offset="1" stop-color="#DC1FFF"/>
</linearGradient>
<linearGradient id="paint6_linear_956_273" x1="19.5771" y1="140.609" x2="160.974" y2="140.609" gradientUnits="userSpaceOnUse">
<stop stop-color="#00FFA3"/>
<stop offset="1" stop-color="#DC1FFF"/>
</linearGradient>
<linearGradient id="paint7_linear_956_273" x1="24.5104" y1="88.8003" x2="156.041" y2="88.8003" gradientUnits="userSpaceOnUse">
<stop stop-color="#00FFA3"/>
<stop offset="1" stop-color="#DC1FFF"/>
</linearGradient>
<clipPath id="clip0_956_273">
<rect width="1124" height="225" fill="white"/>
</clipPath>
</defs>
</svg>
