<svg width="488" height="392" viewBox="0 0 488 392" fill="none" xmlns="http://www.w3.org/2000/svg">
<path d="M372.21 145.02C372.11 147.18 371.99 149.33 371.8 151.46H379.09C379.26 149.33 379.4 147.17 379.48 145.02H372.21Z" fill="url(#paint0_linear_680_214)"/>
<path d="M116.25 145.02H108.98C109.05 147.18 109.2 149.33 109.37 151.46H116.66C116.47 149.33 116.35 147.17 116.25 145.02Z" fill="url(#paint1_linear_680_214)"/>
<path d="M341.26 125.87L291.41 215.25C321.42 198.31 341.24 166.1 341.35 130.19C341.34 128.75 341.31 127.31 341.26 125.87Z" fill="url(#paint2_linear_680_214)"/>
<path d="M145.53 129.61C145.42 166.05 165.51 198.67 196.06 215.59L145.7 124.04C145.6 125.89 145.54 127.75 145.53 129.61Z" fill="url(#paint3_linear_680_214)"/>
<path d="M186.49 110.61L156.07 85.72C170.94 56.19 199.33 36.42 232 32.66L231.89 71.08L231.66 147.57L186.49 110.61ZM256.2 32.83L256.09 71.43L255.87 147.64L331.29 86.67C316.77 57.06 288.72 37.02 256.2 32.83ZM255.8 178.8C254.59 179.78 253.45 180.84 252.37 181.96C252.32 182.01 252.27 182.06 252.22 182.12C250.02 184.3 246.99 185.65 243.65 185.64C240.18 185.63 237.06 184.16 234.86 181.82C234.03 180.94 233.18 180.08 232.25 179.32L180.4 136.89C201.46 175.7 222.52 214.5 243.58 253.31C264.79 214.63 285.99 175.95 307.2 137.27L255.8 178.8Z" fill="url(#paint4_linear_680_214)"/>
<path d="M398.19 133.13C391.09 133.13 385.21 138.26 384 145.02H363.37C363.44 143.18 363.49 141.34 363.49 139.47C363.49 133.92 363.13 128.47 362.45 123.12C362.16 120.96 361.82 118.81 361.43 116.68C351.02 59.43 302.09 15.93 243.43 15.93C184.79 15.93 135.85 59.43 125.43 116.68C125.04 118.81 124.7 120.97 124.41 123.12C123.73 128.47 123.37 133.92 123.37 139.47C123.37 141.33 123.42 143.18 123.49 145.02H104.53C103.34 138.26 97.4302 133.13 90.3602 133.13C82.3902 133.13 75.9302 139.6 75.9302 147.54C75.9302 155.51 82.4002 161.97 90.3602 161.97C96.9502 161.97 102.49 157.51 104.21 151.46H123.95C124.65 159.04 126.01 166.4 127.99 173.5C128.6 175.68 129.25 177.81 129.98 179.94C146.3 228.26 190.99 263.04 243.42 263.04C295.88 263.04 340.56 228.26 356.86 179.94C357.59 177.81 358.24 175.68 358.85 173.5C360.84 166.4 362.22 159.04 362.89 151.46H384.3C386.02 157.51 391.59 161.97 398.18 161.97C406.12 161.97 412.59 155.5 412.59 147.54C412.6 139.59 406.14 133.13 398.19 133.13ZM90.3602 157.13C85.0802 157.13 80.7702 152.84 80.7702 147.54C80.7702 142.26 85.0802 137.97 90.3602 137.97C95.6402 137.97 99.9302 142.26 99.9302 147.54C99.9302 152.84 95.6402 157.13 90.3602 157.13ZM351.28 173.5C350.65 175.68 349.95 177.81 349.17 179.94C333.21 224.16 291.84 255.77 243.43 255.77C195.02 255.77 153.65 224.16 137.69 179.94C136.92 177.81 136.21 175.68 135.58 173.5C133.45 166.4 132 159.04 131.24 151.46C131.02 149.33 130.85 147.17 130.76 145.02C130.69 143.18 130.64 141.34 130.64 139.47C130.64 133.92 131.03 128.45 131.75 123.12C132.04 120.94 132.4 118.81 132.82 116.68C143.11 63.45 188.79 23.19 243.43 23.19C298.07 23.19 343.75 63.44 354.04 116.68C354.45 118.81 354.82 120.94 355.11 123.12C355.84 128.45 356.22 133.92 356.22 139.47C356.22 141.33 356.17 143.18 356.1 145.02C356 147.18 355.83 149.33 355.62 151.46C354.87 159.04 353.41 166.4 351.28 173.5ZM398.19 157.13C392.91 157.13 388.6 152.84 388.6 147.54C388.6 142.26 392.91 137.97 398.19 137.97C403.47 137.97 407.76 142.26 407.76 147.54C407.76 152.84 403.47 157.13 398.19 157.13Z" fill="url(#paint5_linear_680_214)"/>
<path d="M438.11 160.93C430.8 160.93 424.77 166.43 423.84 173.5H375.47H367.96C367.4 175.68 366.77 177.84 366.12 179.94C349.46 232.93 301.11 271.37 244.22 271.37C187.35 271.37 138.99 232.93 122.32 179.94C121.67 177.83 121.04 175.68 120.48 173.5H112.97H64.7C63.78 166.43 57.72 160.93 50.41 160.93C42.47 160.93 36 167.42 36 175.36C36 183.3 42.47 189.77 50.41 189.77C56.76 189.77 62.16 185.65 64.07 179.94H114.74C131.67 237 183.31 278.63 244.22 278.63C305.13 278.63 356.77 237 373.7 179.94H424.44C426.38 185.66 431.75 189.77 438.1 189.77C446.07 189.77 452.53 183.3 452.53 175.36C452.54 167.42 446.08 160.93 438.11 160.93ZM50.43 184.93C45.15 184.93 40.86 180.64 40.86 175.36C40.86 170.08 45.15 165.77 50.43 165.77C55.71 165.77 60 170.08 60 175.36C59.99 180.65 55.71 184.93 50.43 184.93ZM438.11 184.93C432.83 184.93 428.54 180.64 428.54 175.36C428.54 170.08 432.83 165.77 438.11 165.77C443.41 165.77 447.7 170.08 447.7 175.36C447.7 180.65 443.41 184.93 438.11 184.93Z" fill="url(#paint6_linear_680_214)"/>
<path d="M64.96 134.34C71.79 134.34 77.53 129.54 79.01 123.13H109.79H117.1C117.34 120.95 117.66 118.82 118.02 116.69C128.46 54.62 181.09 7.27 244.23 7.27C307.39 7.27 360 54.62 370.44 116.69C370.8 118.82 371.12 120.95 371.36 123.13H378.67H409.55C411 129.55 416.74 134.34 423.57 134.34C431.54 134.34 438 127.87 438 119.91C438 111.97 431.53 105.5 423.57 105.5C416.74 105.5 411 110.3 409.55 116.69H377.8C367.29 50.59 311.39 0 244.23 0C177.07 0 121.17 50.59 110.66 116.69H79C77.52 110.3 71.78 105.5 64.95 105.5C57.01 105.5 50.54 111.97 50.54 119.91C50.55 127.87 57.01 134.34 64.96 134.34ZM423.58 110.34C428.88 110.34 433.17 114.63 433.17 119.91C433.17 125.19 428.88 129.5 423.58 129.5C418.3 129.5 414.01 125.19 414.01 119.91C414.01 114.62 418.3 110.34 423.58 110.34ZM64.96 110.34C70.24 110.34 74.53 114.63 74.53 119.91C74.53 125.19 70.24 129.5 64.96 129.5C59.68 129.5 55.39 125.19 55.39 119.91C55.39 114.62 59.68 110.34 64.96 110.34Z" fill="url(#paint7_linear_680_214)"/>
<path d="M320.44 346.11C327.62 346.11 334.76 346.11 341.96 346.11C341.96 341.42 341.96 336.74 341.96 332C334.8 332 327.65 332 320.44 332C320.44 336.73 320.44 341.39 320.44 346.11Z" fill="white"/>
<path d="M351.78 335.06C348.86 334.07 346.33 333.72 344.66 333.58C344.66 337.22 344.66 340.86 344.66 344.65C346.31 344.49 348.8 344.13 351.7 343.16C354.51 342.22 358.53 340.88 358.54 339.13C358.55 337.35 354.37 335.94 351.78 335.06Z" fill="white"/>
<path d="M318.34 346.13C318.84 346.13 319.3 346.13 319.79 346.13C319.79 341.41 319.79 336.73 319.79 332C319.31 332 318.83 332 318.34 332C318.34 336.7 318.34 341.37 318.34 346.13Z" fill="white"/>
<path d="M343.83 333.22C343.43 332.93 343.02 332.73 342.56 332.47C342.56 336.88 342.56 341.19 342.56 345.66C343 345.4 343.42 345.19 343.84 344.88C343.93 344.81 344.03 344.42 344.03 344.18C344.04 340.76 344.04 337.35 344.03 333.93C344.02 333.68 343.92 333.28 343.83 333.22Z" fill="white"/>
<path d="M67.26 345.82H40.54V391.19H26.72V345.82H0V332H67.25V345.82H67.26Z" fill="white"/>
<path d="M135.44 345.82H86.0402V354.69H132.22V368.51H86.0402V377.38H135.33V391.2H72.2202V332.01H135.44V345.82Z" fill="white"/>
<path d="M213.86 391.19H200.04V372.42H163.65V358.6H200.04V350.31C200.04 347.32 199.04 345.82 197.05 345.82H157.9C155.98 345.82 155.02 347.31 155.02 350.3V391.19H141.2V350.27C141.2 345.29 142.75 341 145.86 337.4C148.97 333.8 152.98 332 157.89 332H197.04C202.03 332 206.08 333.8 209.19 337.4C212.3 341 213.85 345.29 213.85 350.27V391.19H213.86Z" fill="white"/>
<path d="M296.54 391.19H282.72V355.15L258.08 390.27L233.44 355.15V391.19H219.62V332H234.13L258.08 366.2L282.15 332H296.54V391.19Z" fill="white"/>
<path d="M354.59 356.27C350.81 352.76 346.26 350.99 340.88 350.99H316.13C316.09 344.66 316.05 338.33 316.01 332H302.3V364.82H340.88C344.56 364.82 346.4 366.42 346.4 369.62V372.48C346.4 375.75 344.56 377.37 340.88 377.37H321.65C317.97 377.37 316.13 375.77 316.13 372.55H302.3C302.3 377.88 304.19 382.33 307.94 385.87C311.69 389.43 316.27 391.2 321.65 391.2H340.88C346.26 391.2 350.81 389.41 354.59 385.85C358.34 382.29 360.23 377.83 360.23 372.48V369.6C360.23 364.24 358.34 359.81 354.59 356.27Z" fill="white"/>
<path d="M423.91 372.47C423.91 377.83 422.03 382.29 418.27 385.85C414.51 389.41 409.94 391.19 404.57 391.19H385.34C379.96 391.19 375.4 389.42 371.64 385.87C367.88 382.32 366 377.88 366 372.54H379.82C379.82 375.76 381.66 377.38 385.35 377.38H404.58C408.27 377.38 410.11 375.75 410.11 372.47V369.62C410.11 366.42 408.27 364.83 404.58 364.83H366V332.01H420.59V345.83H379.82V351.01H404.58C409.95 351.01 414.52 352.77 418.28 356.29C422.04 359.81 423.92 364.25 423.92 369.61V372.47H423.91Z" fill="white"/>
<path d="M487.59 372.47C487.59 377.83 485.71 382.29 481.95 385.85C478.19 389.41 473.62 391.19 468.25 391.19H449.02C443.64 391.19 439.08 389.41 435.32 385.85C431.56 382.29 429.68 377.82 429.68 372.46V350.85C429.68 345.49 431.56 341 435.32 337.4C439.08 333.8 443.65 332 449.02 332H481.84V345.82H449.02C445.34 345.82 443.49 347.51 443.49 350.89V351.7C445.26 351.24 447.1 351.01 449.02 351.01H468.25C473.62 351.01 478.19 352.77 481.95 356.29C485.71 359.81 487.59 364.25 487.59 369.61V372.47ZM473.77 372.47V369.62C473.77 366.42 471.93 364.83 468.24 364.83H449.01C445.33 364.83 443.48 366.43 443.48 369.62V372.47C443.48 375.74 445.32 377.38 449.01 377.38H468.24C471.93 377.37 473.77 375.74 473.77 372.47Z" fill="white"/>
<defs>
<linearGradient id="paint0_linear_680_214" x1="371.794" y1="148.24" x2="379.472" y2="148.24" gradientUnits="userSpaceOnUse">
<stop stop-color="#00FFA3"/>
<stop offset="1" stop-color="#DC1FFF"/>
</linearGradient>
<linearGradient id="paint1_linear_680_214" x1="108.988" y1="148.24" x2="116.666" y2="148.24" gradientUnits="userSpaceOnUse">
<stop stop-color="#00FFA3"/>
<stop offset="1" stop-color="#DC1FFF"/>
</linearGradient>
<linearGradient id="paint2_linear_680_214" x1="328.769" y1="183.071" x2="306.386" y2="160.554" gradientUnits="userSpaceOnUse">
<stop stop-color="#C5F9F7"/>
<stop offset="0.3877" stop-color="#00C4DE"/>
<stop offset="1" stop-color="#333296"/>
</linearGradient>
<linearGradient id="paint3_linear_680_214" x1="204.926" y1="206.799" x2="134.122" y2="135.574" gradientUnits="userSpaceOnUse">
<stop stop-color="#C5F9F7"/>
<stop offset="0.3877" stop-color="#00C4DE"/>
<stop offset="1" stop-color="#333296"/>
</linearGradient>
<linearGradient id="paint4_linear_680_214" x1="156.067" y1="142.977" x2="331.282" y2="142.977" gradientUnits="userSpaceOnUse">
<stop stop-color="#00FFA3"/>
<stop offset="1" stop-color="#DC1FFF"/>
</linearGradient>
<linearGradient id="paint5_linear_680_214" x1="75.929" y1="139.485" x2="412.605" y2="139.485" gradientUnits="userSpaceOnUse">
<stop stop-color="#00FFA3"/>
<stop offset="1" stop-color="#DC1FFF"/>
</linearGradient>
<linearGradient id="paint6_linear_680_214" x1="36.0151" y1="219.784" x2="452.542" y2="219.784" gradientUnits="userSpaceOnUse">
<stop stop-color="#00FFA3"/>
<stop offset="1" stop-color="#DC1FFF"/>
</linearGradient>
<linearGradient id="paint7_linear_680_214" x1="50.5468" y1="67.1652" x2="438.011" y2="67.1652" gradientUnits="userSpaceOnUse">
<stop stop-color="#00FFA3"/>
<stop offset="1" stop-color="#DC1FFF"/>
</linearGradient>
</defs>
</svg>
