<svg width="1202" height="279" viewBox="0 0 1202 279" fill="none" xmlns="http://www.w3.org/2000/svg">
<path d="M336.21 145.02C336.11 147.18 335.99 149.33 335.8 151.46H343.09C343.26 149.33 343.4 147.17 343.48 145.02H336.21Z" fill="url(#paint0_linear_712_241)"/>
<path d="M80.25 145.02H72.98C73.05 147.18 73.2 149.33 73.37 151.46H80.66C80.47 149.33 80.35 147.17 80.25 145.02Z" fill="url(#paint1_linear_712_241)"/>
<path d="M305.26 125.87L255.41 215.25C285.42 198.31 305.24 166.1 305.35 130.19C305.34 128.75 305.31 127.31 305.26 125.87Z" fill="url(#paint2_linear_712_241)"/>
<path d="M109.53 129.61C109.42 166.05 129.51 198.67 160.06 215.59L109.7 124.04C109.6 125.89 109.54 127.75 109.53 129.61Z" fill="url(#paint3_linear_712_241)"/>
<path d="M150.49 110.61L120.07 85.72C134.94 56.19 163.33 36.42 196 32.66L195.89 71.08L195.66 147.57L150.49 110.61ZM220.2 32.83L220.09 71.43L219.87 147.64L295.29 86.67C280.77 57.06 252.72 37.02 220.2 32.83ZM219.8 178.8C218.59 179.78 217.45 180.84 216.37 181.96C216.32 182.01 216.27 182.06 216.22 182.12C214.02 184.3 210.99 185.65 207.65 185.64C204.18 185.63 201.06 184.16 198.86 181.82C198.03 180.94 197.18 180.08 196.25 179.32L144.4 136.89C165.46 175.7 186.52 214.5 207.58 253.31C228.79 214.63 249.99 175.95 271.2 137.27L219.8 178.8Z" fill="url(#paint4_linear_712_241)"/>
<path d="M362.19 133.13C355.09 133.13 349.21 138.26 348 145.02H327.37C327.44 143.18 327.49 141.34 327.49 139.47C327.49 133.92 327.13 128.47 326.45 123.12C326.16 120.96 325.82 118.81 325.43 116.68C315.02 59.43 266.09 15.93 207.43 15.93C148.79 15.93 99.8502 59.43 89.4302 116.68C89.0402 118.81 88.7002 120.97 88.4102 123.12C87.7302 128.47 87.3702 133.92 87.3702 139.47C87.3702 141.33 87.4202 143.18 87.4902 145.02H68.5302C67.3402 138.26 61.4302 133.13 54.3602 133.13C46.3902 133.13 39.9302 139.6 39.9302 147.54C39.9302 155.51 46.4002 161.97 54.3602 161.97C60.9502 161.97 66.4902 157.51 68.2102 151.46H87.9502C88.6502 159.04 90.0102 166.4 91.9902 173.5C92.6002 175.68 93.2502 177.81 93.9802 179.94C110.3 228.26 154.99 263.04 207.42 263.04C259.88 263.04 304.56 228.26 320.86 179.94C321.59 177.81 322.24 175.68 322.85 173.5C324.84 166.4 326.22 159.04 326.89 151.46H348.3C350.02 157.51 355.59 161.97 362.18 161.97C370.12 161.97 376.59 155.5 376.59 147.54C376.6 139.59 370.14 133.13 362.19 133.13ZM54.3602 157.13C49.0802 157.13 44.7702 152.84 44.7702 147.54C44.7702 142.26 49.0802 137.97 54.3602 137.97C59.6402 137.97 63.9302 142.26 63.9302 147.54C63.9302 152.84 59.6402 157.13 54.3602 157.13ZM315.28 173.5C314.65 175.68 313.95 177.81 313.17 179.94C297.21 224.16 255.84 255.77 207.43 255.77C159.02 255.77 117.65 224.16 101.69 179.94C100.92 177.81 100.21 175.68 99.5802 173.5C97.4502 166.4 96.0002 159.04 95.2402 151.46C95.0202 149.33 94.8502 147.17 94.7602 145.02C94.6902 143.18 94.6402 141.34 94.6402 139.47C94.6402 133.92 95.0302 128.45 95.7502 123.12C96.0402 120.94 96.4002 118.81 96.8202 116.68C107.11 63.45 152.79 23.19 207.43 23.19C262.07 23.19 307.75 63.44 318.04 116.68C318.45 118.81 318.82 120.94 319.11 123.12C319.84 128.45 320.22 133.92 320.22 139.47C320.22 141.33 320.17 143.18 320.1 145.02C320 147.18 319.83 149.33 319.62 151.46C318.87 159.04 317.41 166.4 315.28 173.5ZM362.19 157.13C356.91 157.13 352.6 152.84 352.6 147.54C352.6 142.26 356.91 137.97 362.19 137.97C367.47 137.97 371.76 142.26 371.76 147.54C371.76 152.84 367.47 157.13 362.19 157.13Z" fill="url(#paint5_linear_712_241)"/>
<path d="M402.11 160.93C394.8 160.93 388.77 166.43 387.84 173.5H339.47H331.96C331.4 175.68 330.77 177.84 330.12 179.94C313.46 232.93 265.11 271.37 208.22 271.37C151.35 271.37 102.99 232.93 86.32 179.94C85.67 177.83 85.04 175.68 84.48 173.5H76.97H28.7C27.78 166.43 21.72 160.93 14.41 160.93C6.47 160.93 0 167.42 0 175.36C0 183.3 6.47 189.77 14.41 189.77C20.76 189.77 26.16 185.65 28.07 179.94H78.74C95.67 237 147.31 278.63 208.22 278.63C269.13 278.63 320.77 237 337.7 179.94H388.44C390.38 185.66 395.75 189.77 402.1 189.77C410.07 189.77 416.53 183.3 416.53 175.36C416.54 167.42 410.08 160.93 402.11 160.93ZM14.43 184.93C9.15001 184.93 4.86 180.64 4.86 175.36C4.86 170.08 9.15001 165.77 14.43 165.77C19.71 165.77 24 170.08 24 175.36C23.99 180.65 19.71 184.93 14.43 184.93ZM402.11 184.93C396.83 184.93 392.54 180.64 392.54 175.36C392.54 170.08 396.83 165.77 402.11 165.77C407.41 165.77 411.7 170.08 411.7 175.36C411.7 180.65 407.41 184.93 402.11 184.93Z" fill="url(#paint6_linear_712_241)"/>
<path d="M28.96 134.34C35.79 134.34 41.53 129.54 43.01 123.13H73.79H81.1C81.34 120.95 81.6601 118.82 82.0201 116.69C92.46 54.62 145.09 7.27 208.23 7.27C271.39 7.27 324 54.62 334.44 116.69C334.8 118.82 335.12 120.95 335.36 123.13H342.67H373.55C375 129.55 380.74 134.34 387.57 134.34C395.54 134.34 402 127.87 402 119.91C402 111.97 395.53 105.5 387.57 105.5C380.74 105.5 375 110.3 373.55 116.69H341.8C331.29 50.59 275.39 0 208.23 0C141.07 0 85.17 50.59 74.66 116.69H43C41.52 110.3 35.78 105.5 28.95 105.5C21.01 105.5 14.54 111.97 14.54 119.91C14.55 127.87 21.01 134.34 28.96 134.34ZM387.58 110.34C392.88 110.34 397.17 114.63 397.17 119.91C397.17 125.19 392.88 129.5 387.58 129.5C382.3 129.5 378.01 125.19 378.01 119.91C378.01 114.62 382.3 110.34 387.58 110.34ZM28.96 110.34C34.24 110.34 38.53 114.63 38.53 119.91C38.53 125.19 34.24 129.5 28.96 129.5C23.68 129.5 19.39 125.19 19.39 119.91C19.39 114.62 23.68 110.34 28.96 110.34Z" fill="url(#paint7_linear_712_241)"/>
<path d="M953.33 116.974C964.003 116.974 974.616 116.974 985.319 116.974C985.319 110.003 985.319 103.046 985.319 96C974.676 96 964.047 96 953.33 96C953.33 103.031 953.33 109.958 953.33 116.974Z" fill="white"/>
<path d="M999.916 100.549C995.575 99.077 991.814 98.5568 989.332 98.3487C989.332 103.759 989.332 109.17 989.332 114.804C991.785 114.566 995.486 114.031 999.797 112.589C1003.97 111.192 1009.95 109.2 1009.96 106.599C1009.98 103.953 1003.77 101.857 999.916 100.549Z" fill="white"/>
<path d="M950.208 117.004C950.951 117.004 951.635 117.004 952.363 117.004C952.363 109.988 952.363 103.031 952.363 96C951.649 96 950.936 96 950.208 96C950.208 102.986 950.208 109.928 950.208 117.004Z" fill="white"/>
<path d="M988.099 97.8135C987.504 97.3824 986.895 97.0851 986.211 96.6986C986.211 103.254 986.211 109.661 986.211 116.305C986.865 115.919 987.489 115.607 988.114 115.146C988.247 115.042 988.396 114.462 988.396 114.105C988.411 109.022 988.411 103.953 988.396 98.8689C988.381 98.4973 988.233 97.9027 988.099 97.8135Z" fill="white"/>
<path d="M576.981 116.543H537.262V183.985H516.719V116.543H477V96H576.966V116.543H576.981Z" fill="white"/>
<path d="M678.33 116.543H604.897V129.728H673.543V150.272H604.897V163.457H678.166V184H584.354V96.0149H678.33V116.543Z" fill="white"/>
<path d="M794.9 183.985H774.357V156.084H720.264V135.541H774.357V123.218C774.357 118.773 772.87 116.543 769.912 116.543H711.716C708.862 116.543 707.435 118.758 707.435 123.203V183.985H686.892V123.158C686.892 115.755 689.196 109.378 693.819 104.027C698.442 98.6757 704.403 96 711.702 96H769.898C777.315 96 783.335 98.6757 787.958 104.027C792.581 109.378 794.885 115.755 794.885 123.158V183.985H794.9Z" fill="white"/>
<path d="M917.802 183.985H897.259V130.412L860.632 182.618L824.005 130.412V183.985H803.462V96H825.031L860.632 146.838L896.412 96H917.802V183.985Z" fill="white"/>
<path d="M1004.09 132.077C998.474 126.859 991.71 124.228 983.713 124.228H946.922C946.863 114.819 946.803 105.409 946.744 96H926.364V144.786H983.713C989.183 144.786 991.918 147.165 991.918 151.922V156.173C991.918 161.034 989.183 163.442 983.713 163.442H955.128C949.658 163.442 946.922 161.064 946.922 156.277H926.364C926.364 164.2 929.174 170.815 934.748 176.077C940.322 181.369 947.13 184 955.128 184H983.713C991.71 184 998.474 181.339 1004.09 176.047C1009.67 170.755 1012.48 164.126 1012.48 156.173V151.892C1012.48 143.924 1009.67 137.339 1004.09 132.077Z" fill="white"/>
<path d="M1107.14 156.158C1107.14 164.126 1104.34 170.755 1098.75 176.047C1093.16 181.339 1086.37 183.985 1078.39 183.985H1049.8C1041.81 183.985 1035.03 181.354 1029.44 176.077C1023.85 170.8 1021.05 164.2 1021.05 156.262H1041.6C1041.6 161.049 1044.33 163.457 1049.82 163.457H1078.4C1083.89 163.457 1086.62 161.034 1086.62 156.158V151.922C1086.62 147.165 1083.89 144.801 1078.4 144.801H1021.05V96.0149H1102.2V116.558H1041.6V124.258H1078.4C1086.39 124.258 1093.18 126.874 1098.77 132.107C1104.36 137.339 1107.15 143.939 1107.15 151.907V156.158H1107.14Z" fill="white"/>
<path d="M1201.8 156.158C1201.8 164.126 1199 170.755 1193.41 176.047C1187.82 181.339 1181.03 183.985 1173.05 183.985H1144.46C1136.47 183.985 1129.69 181.339 1124.1 176.047C1118.51 170.755 1115.71 164.111 1115.71 156.143V124.02C1115.71 116.053 1118.51 109.378 1124.1 104.027C1129.69 98.6757 1136.48 96 1144.46 96H1193.25V116.543H1144.46C1138.99 116.543 1136.24 119.055 1136.24 124.08V125.284C1138.87 124.6 1141.61 124.258 1144.46 124.258H1173.05C1181.03 124.258 1187.82 126.874 1193.41 132.107C1199 137.339 1201.8 143.939 1201.8 151.907V156.158ZM1181.25 156.158V151.922C1181.25 147.165 1178.52 144.801 1173.03 144.801H1144.45C1138.98 144.801 1136.23 147.18 1136.23 151.922V156.158C1136.23 161.019 1138.96 163.457 1144.45 163.457H1173.03C1178.52 163.442 1181.25 161.019 1181.25 156.158Z" fill="white"/>
<defs>
<linearGradient id="paint0_linear_712_241" x1="335.794" y1="148.24" x2="343.472" y2="148.24" gradientUnits="userSpaceOnUse">
<stop stop-color="#00FFA3"/>
<stop offset="1" stop-color="#DC1FFF"/>
</linearGradient>
<linearGradient id="paint1_linear_712_241" x1="72.9885" y1="148.24" x2="80.6661" y2="148.24" gradientUnits="userSpaceOnUse">
<stop stop-color="#00FFA3"/>
<stop offset="1" stop-color="#DC1FFF"/>
</linearGradient>
<linearGradient id="paint2_linear_712_241" x1="292.769" y1="183.071" x2="270.386" y2="160.554" gradientUnits="userSpaceOnUse">
<stop stop-color="#C5F9F7"/>
<stop offset="0.3877" stop-color="#00C4DE"/>
<stop offset="1" stop-color="#333296"/>
</linearGradient>
<linearGradient id="paint3_linear_712_241" x1="168.926" y1="206.799" x2="98.122" y2="135.574" gradientUnits="userSpaceOnUse">
<stop stop-color="#C5F9F7"/>
<stop offset="0.3877" stop-color="#00C4DE"/>
<stop offset="1" stop-color="#333296"/>
</linearGradient>
<linearGradient id="paint4_linear_712_241" x1="120.067" y1="142.977" x2="295.282" y2="142.977" gradientUnits="userSpaceOnUse">
<stop stop-color="#00FFA3"/>
<stop offset="1" stop-color="#DC1FFF"/>
</linearGradient>
<linearGradient id="paint5_linear_712_241" x1="39.929" y1="139.485" x2="376.605" y2="139.485" gradientUnits="userSpaceOnUse">
<stop stop-color="#00FFA3"/>
<stop offset="1" stop-color="#DC1FFF"/>
</linearGradient>
<linearGradient id="paint6_linear_712_241" x1="0.0151" y1="219.784" x2="416.542" y2="219.784" gradientUnits="userSpaceOnUse">
<stop stop-color="#00FFA3"/>
<stop offset="1" stop-color="#DC1FFF"/>
</linearGradient>
<linearGradient id="paint7_linear_712_241" x1="14.5468" y1="67.1652" x2="402.011" y2="67.1652" gradientUnits="userSpaceOnUse">
<stop stop-color="#00FFA3"/>
<stop offset="1" stop-color="#DC1FFF"/>
</linearGradient>
</defs>
</svg>
