<svg width="1058" height="199" viewBox="0 0 1058 199" fill="none" xmlns="http://www.w3.org/2000/svg">
<path d="M238.32 103.44C238.242 105.117 238.148 106.786 238 108.44H243.695C243.828 106.786 243.938 105.109 244 103.44H238.32Z" fill="url(#paint0_linear_712_241)"/>
<path d="M56.6797 103.44H51C51.0547 105.117 51.1719 106.786 51.3047 108.44H57C56.8516 106.786 56.7578 105.109 56.6797 103.44Z" fill="url(#paint1_linear_712_241)"/>
<path d="M217 89.4772L181.563 153.015C202.897 140.973 216.986 118.076 217.064 92.5482C217.057 91.5245 217.036 90.5009 217 89.4772Z" fill="url(#paint2_linear_712_241)"/>
<path d="M77.8612 92.1359C77.783 118.04 92.0643 141.229 113.781 153.257L77.982 88.1764C77.9109 89.4915 77.8683 90.8137 77.8612 92.1359Z" fill="url(#paint3_linear_712_241)"/>
<path d="M106.978 78.6294L85.3535 60.9358C95.9242 39.9438 116.106 25.8899 139.33 23.217L139.252 50.5287L139.088 104.903L106.978 78.6294ZM156.533 23.3379L156.455 50.7775L156.298 104.953L209.912 61.6111C199.59 40.5623 179.65 26.3164 156.533 23.3379ZM156.249 127.104C155.388 127.8 154.578 128.554 153.81 129.35C153.775 129.386 153.739 129.421 153.704 129.464C152.14 131.013 149.986 131.973 147.612 131.966C145.145 131.959 142.927 130.914 141.363 129.25C140.773 128.625 140.169 128.014 139.508 127.473L102.649 97.3111C117.62 124.9 132.591 152.482 147.562 180.071C162.639 152.574 177.71 125.078 192.787 97.5812L156.249 127.104Z" fill="url(#paint4_linear_712_241)"/>
<path d="M257.777 93.9135C252.737 93.9135 248.563 97.5673 247.704 102.382H233.058C233.108 101.071 233.143 99.761 233.143 98.4291C233.143 94.4762 232.888 90.5945 232.405 86.7841C232.199 85.2457 231.958 83.7144 231.681 82.1973C224.291 41.4219 189.554 10.4398 147.911 10.4398C106.281 10.4398 71.5381 41.4219 64.1408 82.1973C63.8639 83.7144 63.6226 85.2528 63.4167 86.7841C62.9339 90.5945 62.6784 94.4762 62.6784 98.4291C62.6784 99.7538 62.7139 101.071 62.7636 102.382H49.3036C48.4588 97.5673 44.2632 93.9135 39.2441 93.9135C33.5861 93.9135 29 98.5217 29 104.177C29 109.853 33.5932 114.454 39.2441 114.454C43.9224 114.454 47.8553 111.278 49.0764 106.969H63.0901C63.5871 112.368 64.5526 117.61 65.9582 122.666C66.3912 124.219 66.8527 125.736 67.3709 127.253C78.9567 161.668 110.683 186.44 147.904 186.44C185.146 186.44 216.865 161.668 228.436 127.253C228.955 125.736 229.416 124.219 229.849 122.666C231.262 117.61 232.242 112.368 232.717 106.969H247.917C249.138 111.278 253.092 114.454 257.77 114.454C263.407 114.454 268 109.846 268 104.177C268.007 98.5146 263.421 93.9135 257.777 93.9135ZM39.2441 111.007C35.4957 111.007 32.436 107.952 32.436 104.177C32.436 100.416 35.4957 97.3607 39.2441 97.3607C42.9924 97.3607 46.038 100.416 46.038 104.177C46.038 107.952 42.9924 111.007 39.2441 111.007ZM224.475 122.666C224.028 124.219 223.531 125.736 222.977 127.253C211.647 158.748 182.278 181.262 147.911 181.262C113.544 181.262 84.1746 158.748 72.8444 127.253C72.2977 125.736 71.7937 124.219 71.3464 122.666C69.8343 117.61 68.805 112.368 68.2654 106.969C68.1092 105.452 67.9885 103.913 67.9247 102.382C67.875 101.071 67.8395 99.761 67.8395 98.4291C67.8395 94.4762 68.1163 90.5803 68.6275 86.7841C68.8333 85.2314 69.0889 83.7144 69.3871 82.1973C76.6921 44.2851 109.121 15.6106 147.911 15.6106C186.701 15.6106 219.129 44.278 226.434 82.1973C226.726 83.7144 226.988 85.2314 227.194 86.7841C227.712 90.5803 227.982 94.4762 227.982 98.4291C227.982 99.7538 227.947 101.071 227.897 102.382C227.826 103.92 227.705 105.452 227.556 106.969C227.024 112.368 225.987 117.61 224.475 122.666ZM257.777 111.007C254.029 111.007 250.969 107.952 250.969 104.177C250.969 100.416 254.029 97.3607 257.777 97.3607C261.526 97.3607 264.571 100.416 264.571 104.177C264.571 107.952 261.526 111.007 257.777 111.007Z" fill="url(#paint5_linear_712_241)"/>
<path d="M285.848 114.4C280.652 114.4 276.365 118.31 275.704 123.336H241.319H235.981C235.582 124.886 235.135 126.421 234.673 127.914C222.829 165.583 188.459 192.909 148.017 192.909C107.59 192.909 73.2125 165.583 61.3623 127.914C60.9003 126.414 60.4524 124.886 60.0543 123.336H54.7157H20.402C19.748 118.31 15.4401 114.4 10.2436 114.4C4.59933 114.4 0 119.014 0 124.658C0 130.303 4.59933 134.902 10.2436 134.902C14.7577 134.902 18.5964 131.973 19.9541 127.914H55.9739C68.009 168.476 104.718 198.07 148.017 198.07C191.317 198.07 228.026 168.476 240.061 127.914H276.13C277.51 131.98 281.327 134.902 285.841 134.902C291.507 134.902 296.099 130.303 296.099 124.658C296.106 119.014 291.514 114.4 285.848 114.4ZM10.2579 131.461C6.50447 131.461 3.45483 128.412 3.45483 124.658C3.45483 120.905 6.50447 117.841 10.2579 117.841C14.0113 117.841 17.0609 120.905 17.0609 124.658C17.0538 128.419 14.0113 131.461 10.2579 131.461ZM285.848 131.461C282.095 131.461 279.045 128.412 279.045 124.658C279.045 120.905 282.095 117.841 285.848 117.841C289.616 117.841 292.665 120.905 292.665 124.658C292.665 128.419 289.616 131.461 285.848 131.461Z" fill="url(#paint6_linear_712_241)"/>
<path d="M20.5872 95.4983C25.4424 95.4983 29.5228 92.0861 30.5749 87.5295H52.4555H57.6519C57.8226 85.9798 58.05 84.4656 58.306 82.9514C65.7274 38.8277 103.141 5.16803 148.025 5.16803C192.923 5.16803 230.322 38.8277 237.744 82.9514C238 84.4656 238.227 85.9798 238.398 87.5295H243.594H265.546C266.577 92.0932 270.657 95.4983 275.512 95.4983C281.178 95.4983 285.77 90.899 285.77 85.2405C285.77 79.5961 281.171 74.9968 275.512 74.9968C270.657 74.9968 266.577 78.409 265.546 82.9514H242.976C235.505 35.9629 195.767 0 148.025 0C100.283 0 60.5452 35.9629 53.0739 82.9514H30.5678C29.5157 78.409 25.4353 74.9968 20.5801 74.9968C14.9358 74.9968 10.3364 79.5961 10.3364 85.2405C10.3435 90.899 14.9358 95.4983 20.5872 95.4983ZM275.519 78.4374C279.287 78.4374 282.337 81.4871 282.337 85.2405C282.337 88.9938 279.287 92.0577 275.519 92.0577C271.766 92.0577 268.716 88.9938 268.716 85.2405C268.716 81.4799 271.766 78.4374 275.519 78.4374ZM20.5872 78.4374C24.3406 78.4374 27.3902 81.4871 27.3902 85.2405C27.3902 88.9938 24.3406 92.0577 20.5872 92.0577C16.8338 92.0577 13.7841 88.9938 13.7841 85.2405C13.7841 81.4799 16.8338 78.4374 20.5872 78.4374Z" fill="url(#paint7_linear_712_241)"/>
<path d="M809.331 75.9744C820.004 75.9744 830.617 75.9744 841.32 75.9744C841.32 69.0027 841.32 62.046 841.32 55C830.677 55 820.048 55 809.331 55C809.331 62.0311 809.331 68.9581 809.331 75.9744Z" fill="white"/>
<path d="M855.917 59.5487C851.576 58.077 847.815 57.5568 845.333 57.3487C845.333 62.7595 845.333 68.1703 845.333 73.8041C847.786 73.5662 851.487 73.0311 855.798 71.5892C859.975 70.1919 865.951 68.2 865.965 65.5987C865.98 62.9527 859.767 60.8568 855.917 59.5487Z" fill="white"/>
<path d="M806.208 76.0041C806.952 76.0041 807.636 76.0041 808.364 76.0041C808.364 68.9879 808.364 62.0311 808.364 55C807.65 55 806.937 55 806.208 55C806.208 61.9865 806.208 68.9284 806.208 76.0041Z" fill="white"/>
<path d="M844.1 56.8135C843.505 56.3824 842.896 56.0851 842.212 55.6987C842.212 62.2541 842.212 68.6608 842.212 75.3054C842.866 74.9189 843.49 74.6068 844.115 74.146C844.248 74.0419 844.397 73.4622 844.397 73.1054C844.412 68.0217 844.412 62.9527 844.397 57.869C844.382 57.4973 844.234 56.9027 844.1 56.8135Z" fill="white"/>
<path d="M432.982 75.5433H393.263V142.985H372.72V75.5433H333.001V55H432.967V75.5433H432.982Z" fill="white"/>
<path d="M534.331 75.5433H460.898V88.7284H529.544V109.272H460.898V122.457H534.167V143H440.355V55.0149H534.331V75.5433Z" fill="white"/>
<path d="M650.901 142.985H630.358V115.084H576.265V94.5406H630.358V82.2176C630.358 77.773 628.871 75.5433 625.913 75.5433H567.717C564.863 75.5433 563.436 77.7581 563.436 82.2027V142.985H542.893V82.1581C542.893 74.7554 545.197 68.3784 549.82 63.027C554.443 57.6757 560.404 55 567.703 55H625.898C633.316 55 639.336 57.6757 643.959 63.027C648.582 68.3784 650.886 74.7554 650.886 82.1581V142.985H650.901Z" fill="white"/>
<path d="M773.803 142.985H753.26V89.4122L716.633 141.618L680.006 89.4122V142.985H659.463V55H681.032L716.633 105.838L752.413 55H773.803V142.985Z" fill="white"/>
<path d="M860.094 91.0771C854.475 85.8595 847.711 83.2284 839.714 83.2284H802.923C802.864 73.819 802.804 64.4095 802.745 55H782.365V103.787H839.714C845.184 103.787 847.919 106.165 847.919 110.922V115.173C847.919 120.034 845.184 122.442 839.714 122.442H811.129C805.658 122.442 802.923 120.064 802.923 115.277H782.365C782.365 123.2 785.175 129.815 790.749 135.077C796.323 140.369 803.131 143 811.129 143H839.714C847.711 143 854.475 140.339 860.094 135.047C865.668 129.755 868.477 123.126 868.477 115.173V110.892C868.477 102.924 865.668 96.3392 860.094 91.0771Z" fill="white"/>
<path d="M963.138 115.158C963.138 123.126 960.343 129.755 954.754 135.047C949.165 140.339 942.371 142.985 934.389 142.985H905.804C897.806 142.985 891.028 140.354 885.439 135.077C879.85 129.8 877.055 123.2 877.055 115.262H897.598C897.598 120.049 900.334 122.457 905.819 122.457H934.404C939.889 122.457 942.624 120.034 942.624 115.158V110.922C942.624 106.165 939.889 103.801 934.404 103.801H877.055V55.0149H958.202V75.5581H897.598V83.2581H934.404C942.386 83.2581 949.179 85.8743 954.769 91.1068C960.358 96.3392 963.152 102.939 963.152 110.907V115.158H963.138Z" fill="white"/>
<path d="M1057.8 115.158C1057.8 123.126 1055 129.755 1049.41 135.047C1043.82 140.339 1037.03 142.985 1029.05 142.985H1000.46C992.466 142.985 985.688 140.339 980.099 135.047C974.509 129.755 971.715 123.111 971.715 115.143V83.0203C971.715 75.0527 974.509 68.3784 980.099 63.027C985.688 57.6757 992.481 55 1000.46 55H1049.25V75.5433H1000.46C994.993 75.5433 992.243 78.0554 992.243 83.0798V84.2838C994.874 83.6 997.609 83.2581 1000.46 83.2581H1029.05C1037.03 83.2581 1043.82 85.8743 1049.41 91.1068C1055 96.3392 1057.8 102.939 1057.8 110.907V115.158ZM1037.25 115.158V110.922C1037.25 106.165 1034.52 103.801 1029.03 103.801H1000.45C994.978 103.801 992.228 106.18 992.228 110.922V115.158C992.228 120.019 994.964 122.457 1000.45 122.457H1029.03C1034.52 122.442 1037.25 120.019 1037.25 115.158Z" fill="white"/>
<defs>
<linearGradient id="paint0_linear_712_241" x1="237.996" y1="105.94" x2="243.994" y2="105.94" gradientUnits="userSpaceOnUse">
<stop stop-color="#00FFA3"/>
<stop offset="1" stop-color="#DC1FFF"/>
</linearGradient>
<linearGradient id="paint1_linear_712_241" x1="51.0066" y1="105.94" x2="57.0048" y2="105.94" gradientUnits="userSpaceOnUse">
<stop stop-color="#00FFA3"/>
<stop offset="1" stop-color="#DC1FFF"/>
</linearGradient>
<linearGradient id="paint2_linear_712_241" x1="208.121" y1="130.139" x2="192.209" y2="114.133" gradientUnits="userSpaceOnUse">
<stop stop-color="#C5F9F7"/>
<stop offset="0.3877" stop-color="#00C4DE"/>
<stop offset="1" stop-color="#333296"/>
</linearGradient>
<linearGradient id="paint3_linear_712_241" x1="120.084" y1="147.007" x2="69.7518" y2="96.3753" gradientUnits="userSpaceOnUse">
<stop stop-color="#C5F9F7"/>
<stop offset="0.3877" stop-color="#00C4DE"/>
<stop offset="1" stop-color="#333296"/>
</linearGradient>
<linearGradient id="paint4_linear_712_241" x1="85.3516" y1="101.638" x2="209.906" y2="101.638" gradientUnits="userSpaceOnUse">
<stop stop-color="#00FFA3"/>
<stop offset="1" stop-color="#DC1FFF"/>
</linearGradient>
<linearGradient id="paint5_linear_712_241" x1="28.9991" y1="98.4396" x2="268.01" y2="98.4396" gradientUnits="userSpaceOnUse">
<stop stop-color="#00FFA3"/>
<stop offset="1" stop-color="#DC1FFF"/>
</linearGradient>
<linearGradient id="paint6_linear_712_241" x1="0.0107341" y1="156.238" x2="296.108" y2="156.238" gradientUnits="userSpaceOnUse">
<stop stop-color="#00FFA3"/>
<stop offset="1" stop-color="#DC1FFF"/>
</linearGradient>
<linearGradient id="paint7_linear_712_241" x1="10.3413" y1="47.7457" x2="285.778" y2="47.7457" gradientUnits="userSpaceOnUse">
<stop stop-color="#00FFA3"/>
<stop offset="1" stop-color="#DC1FFF"/>
</linearGradient>
</defs>
</svg>
