<svg width="776" height="141" viewBox="0 0 776 141" fill="none" xmlns="http://www.w3.org/2000/svg">
<path d="M169.47 73.0991C169.42 74.1879 169.36 75.2716 169.264 76.3453H172.938C173.024 75.2716 173.095 74.1829 173.135 73.0991H169.47Z" fill="white"/>
<path d="M40.451 73.0991H36.7864C36.8217 74.1879 36.8973 75.2716 36.983 76.3453H40.6576C40.5619 75.2716 40.5014 74.1829 40.451 73.0991Z" fill="white"/>
<path d="M153.87 63.446L128.742 108.499C143.869 99.9602 153.86 83.7244 153.915 65.6236C153.91 64.8977 153.895 64.1719 153.87 63.446Z" fill="white"/>
<path d="M55.2099 65.3313C55.1544 83.6993 65.281 100.142 80.6801 108.67L55.2956 62.5237C55.2452 63.4562 55.2149 64.3937 55.2099 65.3313Z" fill="white"/>
<path d="M75.8562 55.7542L60.5226 43.2081C68.018 28.3232 82.3283 18.3579 98.796 16.4626L98.7406 35.8287L98.6246 74.3843L75.8562 55.7542ZM110.994 16.5483L110.939 36.0051L110.828 74.4196L148.844 43.687C141.525 28.7617 127.386 18.6604 110.994 16.5483ZM110.793 90.1261C110.183 90.6201 109.608 91.1544 109.064 91.719C109.039 91.7442 109.013 91.7694 108.988 91.7996C107.879 92.8985 106.352 93.579 104.668 93.5739C102.919 93.5689 101.347 92.8279 100.238 91.6484C99.8193 91.2048 99.3908 90.7714 98.922 90.3883L72.7864 69.0009C83.402 88.5636 94.0175 108.121 104.633 127.684C115.324 108.187 126.01 88.6896 136.701 69.1925L110.793 90.1261Z" fill="white"/>
<path d="M182.566 67.1055C178.987 67.1055 176.023 69.6913 175.413 73.0988H165.015C165.05 72.1713 165.075 71.2439 165.075 70.3013C165.075 67.5037 164.894 64.7566 164.551 62.0599C164.405 60.9711 164.233 59.8874 164.037 58.8137C158.789 29.9562 134.126 8.02954 104.557 8.02954C74.9992 8.02954 50.3305 29.9562 45.0782 58.8137C44.8816 59.8874 44.7102 60.9761 44.564 62.0599C44.2213 64.7566 44.0398 67.5037 44.0398 70.3013C44.0398 71.2388 44.065 72.1713 44.1003 73.0988H34.5433C33.9435 69.6913 30.9645 67.1055 27.4008 67.1055C23.3834 67.1055 20.1271 70.3668 20.1271 74.369C20.1271 78.3864 23.3884 81.6426 27.4008 81.6426C30.7225 81.6426 33.515 79.3945 34.382 76.345H44.3322C44.685 80.1657 45.3705 83.8756 46.3686 87.4545C46.6761 88.5533 47.0037 89.627 47.3717 90.7006C55.5979 115.057 78.1244 132.588 104.552 132.588C130.995 132.588 153.517 115.057 161.733 90.7006C162.101 89.627 162.429 88.5533 162.736 87.4545C163.739 83.8756 164.435 80.1657 164.773 76.345H175.565C176.431 79.3945 179.239 81.6426 182.561 81.6426C186.563 81.6426 189.824 78.3814 189.824 74.369C189.829 70.3618 186.573 67.1055 182.566 67.1055ZM27.4008 79.203C24.7393 79.203 22.5668 77.0406 22.5668 74.369C22.5668 71.7076 24.7393 69.5452 27.4008 69.5452C30.0622 69.5452 32.2246 71.7076 32.2246 74.369C32.2246 77.0406 30.0622 79.203 27.4008 79.203ZM158.92 87.4545C158.603 88.5533 158.25 89.627 157.857 90.7006C149.812 112.99 128.959 128.924 104.557 128.924C80.1558 128.924 59.3028 112.99 51.258 90.7006C50.8698 89.627 50.512 88.5533 50.1944 87.4545C49.1208 83.8756 48.3899 80.1657 48.0068 76.345C47.8959 75.2713 47.8102 74.1825 47.7648 73.0988C47.7295 72.1713 47.7043 71.2439 47.7043 70.3013C47.7043 67.5037 47.9009 64.7465 48.2638 62.0599C48.41 60.961 48.5915 59.8874 48.8032 58.8137C53.99 31.9825 77.0155 11.689 104.557 11.689C132.099 11.689 155.125 31.9775 160.312 58.8137C160.518 59.8874 160.705 60.961 160.851 62.0599C161.219 64.7465 161.41 67.5037 161.41 70.3013C161.41 71.2388 161.385 72.1713 161.35 73.0988C161.3 74.1876 161.214 75.2713 161.108 76.345C160.73 80.1657 159.994 83.8756 158.92 87.4545ZM182.566 79.203C179.904 79.203 177.732 77.0406 177.732 74.369C177.732 71.7076 179.904 69.5452 182.566 69.5452C185.227 69.5452 187.39 71.7076 187.39 74.369C187.39 77.0406 185.227 79.203 182.566 79.203Z" fill="white"/>
<path d="M202.688 81.1187C199.003 81.1187 195.964 83.891 195.495 87.4547H171.114H167.328C167.046 88.5536 166.728 89.6423 166.401 90.7009C158.003 117.411 133.632 136.787 104.956 136.787C76.2897 136.787 51.9133 117.411 43.5106 90.7009C43.1829 89.6373 42.8654 88.5536 42.5831 87.4547H38.7976H14.4666C14.0028 83.891 10.9482 81.1187 7.26352 81.1187C3.26128 81.1187 0 84.39 0 88.3923C0 92.3945 3.26128 95.6558 7.26352 95.6558C10.4643 95.6558 13.1862 93.579 14.149 90.7009H39.6898C48.2235 119.463 74.2533 140.447 104.956 140.447C135.658 140.447 161.688 119.463 170.221 90.7009H195.798C196.775 93.5841 199.482 95.6558 202.683 95.6558C206.7 95.6558 209.957 92.3945 209.957 88.3923C209.962 84.39 206.705 81.1187 202.688 81.1187ZM7.27361 93.2161C4.61216 93.2161 2.44974 91.0537 2.44974 88.3923C2.44974 85.7308 4.61216 83.5583 7.27361 83.5583C9.93505 83.5583 12.0975 85.7308 12.0975 88.3923C12.0924 91.0587 9.93505 93.2161 7.27361 93.2161ZM202.688 93.2161C200.027 93.2161 197.864 91.0537 197.864 88.3923C197.864 85.7308 200.027 83.5583 202.688 83.5583C205.36 83.5583 207.522 85.7308 207.522 88.3923C207.522 91.0587 205.36 93.2161 202.688 93.2161Z" fill="white"/>
<path d="M14.5977 67.7156C18.0405 67.7156 20.9338 65.2961 21.6798 62.065H37.1948H40.8795C41.0005 60.9662 41.1618 59.8925 41.3432 58.8189C46.6056 27.5318 73.1344 3.66452 104.961 3.66452C136.797 3.66452 163.316 27.5318 168.578 58.8189C168.76 59.8925 168.921 60.9662 169.042 62.065H172.727H188.292C189.023 65.3011 191.916 67.7156 195.359 67.7156C199.376 67.7156 202.633 64.4543 202.633 60.442C202.633 56.4397 199.371 53.1785 195.359 53.1785C191.916 53.1785 189.023 55.5979 188.292 58.8189H172.288C166.991 25.5005 138.814 0 104.961 0C71.108 0 42.931 25.5005 37.6333 58.8189H21.6747C20.9287 55.5979 18.0354 53.1785 14.5927 53.1785C10.5904 53.1785 7.32916 56.4397 7.32916 60.442C7.3342 64.4543 10.5904 67.7156 14.5977 67.7156ZM195.364 55.6181C198.036 55.6181 200.198 57.7805 200.198 60.442C200.198 63.1034 198.036 65.2759 195.364 65.2759C192.703 65.2759 190.54 63.1034 190.54 60.442C190.54 57.7755 192.703 55.6181 195.364 55.6181ZM14.5977 55.6181C17.2592 55.6181 19.4216 57.7805 19.4216 60.442C19.4216 63.1034 17.2592 65.2759 14.5977 65.2759C11.9363 65.2759 9.77385 63.1034 9.77385 60.442C9.77385 57.7755 11.9363 55.6181 14.5977 55.6181Z" fill="white"/>
<path d="M594.421 56.2541C602.184 56.2541 609.902 56.2541 617.686 56.2541C617.686 51.1838 617.686 46.1243 617.686 41C609.946 41 602.216 41 594.421 41C594.421 46.1135 594.421 51.1514 594.421 56.2541Z" fill="white"/>
<path d="M628.303 44.3082C625.146 43.238 622.411 42.8596 620.605 42.7083C620.605 46.6434 620.605 50.5785 620.605 54.6758C622.389 54.5028 625.081 54.1136 628.216 53.065C631.254 52.0488 635.6 50.6001 635.611 48.7082C635.621 46.7839 631.103 45.2596 628.303 44.3082Z" fill="white"/>
<path d="M592.151 56.2757C592.692 56.2757 593.189 56.2757 593.719 56.2757C593.719 51.173 593.719 46.1135 593.719 41C593.2 41 592.681 41 592.151 41C592.151 46.0811 592.151 51.1297 592.151 56.2757Z" fill="white"/>
<path d="M619.708 42.3189C619.276 42.0054 618.832 41.7891 618.335 41.5081C618.335 46.2756 618.335 50.9351 618.335 55.7675C618.811 55.4864 619.265 55.2594 619.719 54.9243C619.816 54.8486 619.924 54.427 619.924 54.1675C619.935 50.4702 619.935 46.7838 619.924 43.0865C619.913 42.8162 619.805 42.3837 619.708 42.3189Z" fill="white"/>
<path d="M320.714 55.9405H291.827V104.989H276.886V55.9405H248V41H320.703V55.9405H320.714Z" fill="white"/>
<path d="M394.421 55.9407H341.016V65.5299H390.94V80.4704H341.016V90.0596H394.303V105H326.076V41.011H394.421V55.9407Z" fill="white"/>
<path d="M479.2 104.989H464.26V84.6973H424.919V69.7568H464.26V60.7946C464.26 57.5622 463.178 55.9405 461.027 55.9405H418.703C416.627 55.9405 415.589 57.5514 415.589 60.7838V104.989H400.649V60.7514C400.649 55.3676 402.324 50.7297 405.687 46.8378C409.049 42.9459 413.384 41 418.692 41H461.016C466.411 41 470.789 42.9459 474.151 46.8378C477.514 50.7297 479.189 55.3676 479.189 60.7514V104.989H479.2Z" fill="white"/>
<path d="M568.584 104.989H553.643V66.027L527.005 103.995L500.367 66.027V104.989H485.427V41H501.113L527.005 77.973L553.027 41H568.584V104.989Z" fill="white"/>
<path d="M631.34 67.2379C627.254 63.4433 622.335 61.5297 616.519 61.5297H589.762C589.719 54.6865 589.676 47.8432 589.632 41H574.811V76.4811H616.519C620.497 76.4811 622.486 78.2108 622.486 81.6703V84.7622C622.486 88.2973 620.497 90.0486 616.519 90.0486H595.73C591.751 90.0486 589.762 88.3189 589.762 84.8379H574.811C574.811 90.6 576.854 95.4108 580.908 99.2378C584.962 103.086 589.913 105 595.73 105H616.519C622.335 105 627.254 103.065 631.34 99.2162C635.395 95.3676 637.438 90.546 637.438 84.7622V81.6486C637.438 75.8541 635.395 71.0649 631.34 67.2379Z" fill="white"/>
<path d="M706.281 84.7515C706.281 90.5461 704.249 95.3677 700.184 99.2164C696.119 103.065 691.178 104.989 685.373 104.989H664.584C658.767 104.989 653.838 103.076 649.773 99.238C645.708 95.4002 643.676 90.6002 643.676 84.8272H658.616C658.616 88.3083 660.605 90.0596 664.594 90.0596H685.384C689.373 90.0596 691.362 88.2975 691.362 84.7515V81.6704C691.362 78.211 689.373 76.4921 685.384 76.4921H643.676V41.011H702.692V55.9515H658.616V61.5515H685.384C691.189 61.5515 696.13 63.4542 700.194 67.2596C704.259 71.065 706.292 75.865 706.292 81.6596V84.7515H706.281Z" fill="white"/>
<path d="M775.124 84.7513C775.124 90.5459 773.092 95.3676 769.027 99.2162C764.962 103.065 760.021 104.989 754.216 104.989H733.427C727.611 104.989 722.681 103.065 718.616 99.2162C714.551 95.3676 712.519 90.5351 712.519 84.7406V61.3784C712.519 55.5838 714.551 50.7297 718.616 46.8378C722.681 42.9459 727.622 41 733.427 41H768.908V55.9405H733.427C729.449 55.9405 727.449 57.7676 727.449 61.4216V62.2973C729.362 61.8 731.351 61.5514 733.427 61.5514H754.216C760.021 61.5514 764.962 63.4541 769.027 67.2595C773.092 71.0649 775.124 75.8649 775.124 81.6595V84.7513ZM760.184 84.7513V81.6703C760.184 78.2108 758.194 76.4919 754.205 76.4919H733.416C729.438 76.4919 727.438 78.2216 727.438 81.6703V84.7513C727.438 88.2865 729.427 90.0595 733.416 90.0595H754.205C758.194 90.0486 760.184 88.2865 760.184 84.7513Z" fill="white"/>
</svg>
